<svg width="621" height="53" viewBox="0 0 621 53" fill="none" xmlns="http://www.w3.org/2000/svg">
<path d="M2 49.1531C152.787 49.1531 341.694 50.6671 492.481 50.3542C500.401 50.3378 545.98 50.3542 562.945 42.89C566.094 41.5044 569.294 39.853 570.331 38.017C572.357 34.4298 567.101 27.7659 565.03 25.3673C564.179 24.3824 559.611 20.8101 561.021 20.147C565.522 18.0313 572.163 18.5769 579.171 16.8996C594.112 13.3233 603.685 8.6131 616.092 3.0762C616.622 2.83986 619.974 0.83149 618.722 2.99027C615.618 8.33976 611.309 13.4411 607.695 18.5696C599.159 30.6844 590.662 41.1198 578.893 51" stroke="#6CC1BB" stroke-width="3" stroke-linecap="round"/>
</svg>
