<svg width="533" height="120" viewBox="0 0 533 120" fill="none" xmlns="http://www.w3.org/2000/svg">
<path d="M2 60.3905C94.8186 60.3905 187.637 60.3905 280.456 60.3905C334.486 60.3905 388.922 62.2147 442.911 59.8608C462.854 58.9913 484.226 57.9987 503.5 52.9696C521.56 48.2572 535.365 34.5892 530 18.4695C525 3.44595 515.5 -0.530592 500.773 3.44624C472.203 11.1611 469.497 45.4184 477.47 72.8416C478.136 75.1325 478.784 77.7985 479.89 78.8586C482.052 80.9297 489.793 77.5975 492.083 76.6742C493.024 76.295 495.336 74.8277 495.01 75.8718C493.932 79.3213 493.064 84.4045 492.653 87.8387C491.521 97.3037 493.04 106.89 494.086 116.34C494.13 116.743 494.793 119.398 493.501 118.129C490.298 114.985 487.576 111.077 484.663 107.632C477.782 99.4948 472.136 91.7152 467.71 81.8399" stroke="#6CC1BB" stroke-width="3" stroke-linecap="round"/>
</svg>
