<svg preserveAspectRatio="none" width="504" height="216" viewBox="0 0 504 216" fill="none" xmlns="http://www.w3.org/2000/svg">
<rect width="72" height="72" transform="matrix(-1 0 0 1 504 0)" fill="#FF666F" fill-opacity="0.3"/>
<rect width="72" height="72" transform="matrix(-1 0 0 1 360 0)" fill="#FF666F"/>
<rect width="72" height="72" transform="matrix(-1 0 0 1 216 144)" fill="#FF666F"/>
<rect width="72" height="72" transform="matrix(-1 0 0 1 504 144)" fill="#FF666F"/>
<rect width="72" height="72" transform="matrix(-1 0 0 1 288 0)" fill="#FF666F" fill-opacity="0.3"/>
<rect x="288" y="144" width="72" height="72" fill="#FF666F" fill-opacity="0.3"/>
<rect width="72" height="72" transform="matrix(-1 0 0 1 72 0)" fill="#FF666F"/>
<rect width="72" height="72" transform="matrix(-1 0 0 1 432 72)" fill="#FF666F"/>
<rect width="72" height="72" transform="matrix(-1 0 0 1 144 0)" fill="#FF666F" fill-opacity="0.3"/>
<rect width="72" height="72" transform="matrix(-1 0 0 1 144 72)" fill="#FF666F"/>
<rect width="72" height="72" transform="matrix(-1 0 0 1 216 72)" fill="#FF666F" fill-opacity="0.3"/>
</svg>
