<svg width="394" height="525" viewBox="0 0 394 525" fill="none" xmlns="http://www.w3.org/2000/svg">
<g opacity="0.15">
<rect width="72" height="72" transform="matrix(-4.37114e-08 -1 -1 4.37114e-08 72 287.998)" fill="white" fill-opacity="0.4"/>
<rect width="72" height="72" transform="matrix(-4.37114e-08 -1 -1 4.37114e-08 144 287.998)" fill="white" fill-opacity="0.8"/>
<rect width="72" height="72" transform="matrix(-4.37114e-08 -1 -1 4.37114e-08 72 216)" fill="white" fill-opacity="0.8"/>
<rect width="72" height="72" transform="matrix(-4.37114e-08 -1 -1 4.37114e-08 216 216)" fill="white" fill-opacity="0.8"/>
<rect width="72" height="72" transform="matrix(-4.37114e-08 -1 -1 4.37114e-08 72 144)" fill="white" fill-opacity="0.8"/>
<rect width="72" height="72" transform="matrix(-4.37114e-08 -1 -1 4.37114e-08 144 144)" fill="white" fill-opacity="0.8"/>
<rect width="72" height="72" transform="matrix(-4.37114e-08 -1 -1 4.37114e-08 216 144)" fill="white" fill-opacity="0.4"/>
<rect width="72" height="72" transform="matrix(-4.37114e-08 -1 -1 4.37114e-08 360 72)" fill="white" fill-opacity="0.4"/>
<rect width="72" height="72" transform="matrix(-4.37114e-08 -1 -1 4.37114e-08 288 144)" fill="white" fill-opacity="0.8"/>
<rect width="72" height="72" transform="matrix(-4.37114e-08 -1 -1 4.37114e-08 72 72)" fill="white" fill-opacity="0.4"/>
<rect width="72" height="72" transform="matrix(-4.37114e-08 -1 -1 4.37114e-08 144 72)" fill="white" fill-opacity="0.8"/>
<rect width="72" height="72" transform="matrix(-4.37114e-08 -1 -1 4.37114e-08 216 72)" fill="white" fill-opacity="0.8"/>
<rect width="72" height="72" transform="matrix(-4.37114e-08 -1 -1 4.37114e-08 288 72)" fill="white" fill-opacity="0.4"/>
</g>
</svg>
