<svg width="96" height="72" viewBox="0 0 96 72" fill="none" xmlns="http://www.w3.org/2000/svg">
<rect width="24" height="24" transform="matrix(-4.37114e-08 1 1 4.37114e-08 0 24)" fill="#FF666F"/>
<rect width="24" height="24" transform="matrix(-4.37114e-08 1 1 4.37114e-08 48 24)" fill="#FF666F" fill-opacity="0.3"/>
<rect width="24" height="24" transform="matrix(-4.37114e-08 1 1 4.37114e-08 24 48)" fill="#FF666F" fill-opacity="0.3"/>
<rect width="24" height="24" transform="matrix(-4.37114e-08 1 1 4.37114e-08 72 48)" fill="#FF666F" fill-opacity="0.3"/>
<rect width="24" height="24" transform="matrix(-4.37114e-08 1 1 4.37114e-08 48 48)" fill="#FF666F"/>
<rect width="24" height="24" transform="matrix(-4.37114e-08 1 1 4.37114e-08 72 0)" fill="#FF666F"/>
</svg>
