<svg width="576" height="504" viewBox="0 0 576 504" fill="none" xmlns="http://www.w3.org/2000/svg">
<g opacity="0.15">
<rect y="432" width="72" height="72" fill="white" fill-opacity="0.8"/>
<rect x="72" y="432" width="72" height="72" fill="white" fill-opacity="0.4"/>
<rect x="72" y="288" width="72" height="72" fill="white" fill-opacity="0.4"/>
<rect x="216" y="432" width="72" height="72" fill="white" fill-opacity="0.4"/>
<rect x="216" y="360" width="72" height="72" fill="white" fill-opacity="0.8"/>
<rect x="144" y="216" width="72" height="72" fill="white" fill-opacity="0.4"/>
<rect x="144" y="288" width="72" height="72" fill="white" fill-opacity="0.8"/>
<rect x="288" y="288" width="72" height="72" fill="white" fill-opacity="0.8"/>
<rect x="144" y="432" width="72" height="72" fill="white" fill-opacity="0.8"/>
<rect x="144" y="360" width="72" height="72" fill="white" fill-opacity="0.4"/>
<rect x="288" y="432" width="72" height="72" fill="white" fill-opacity="0.4"/>
<rect x="216" y="288" width="72" height="72" fill="white" fill-opacity="0.4"/>
<rect x="288" y="360" width="72" height="72" fill="white" fill-opacity="0.8"/>
<rect x="288" y="216" width="72" height="72" fill="white" fill-opacity="0.4"/>
<rect x="288" y="144" width="72" height="72" fill="white" fill-opacity="0.8"/>
<rect x="360" y="432" width="72" height="72" fill="white" fill-opacity="0.8"/>
<rect x="360" y="360" width="72" height="72" fill="white" fill-opacity="0.4"/>
<rect x="360" y="288" width="72" height="72" fill="white" fill-opacity="0.8"/>
<rect x="360" y="72" width="72" height="72" fill="white" fill-opacity="0.8"/>
<rect x="432" y="432" width="72" height="72" fill="white" fill-opacity="0.8"/>
<rect x="432" y="360" width="72" height="72" fill="white" fill-opacity="0.8"/>
<rect x="432" y="288" width="72" height="72" fill="white" fill-opacity="0.4"/>
<rect x="432" y="216" width="72" height="72" fill="white" fill-opacity="0.8"/>
<rect x="432" y="144" width="72" height="72" fill="white" fill-opacity="0.4"/>
<rect x="432" y="72" width="72" height="72" fill="white" fill-opacity="0.8"/>
<rect x="504" y="432" width="72" height="72" fill="white" fill-opacity="0.4"/>
<rect x="504" y="360" width="72" height="72" fill="white" fill-opacity="0.8"/>
<rect x="504" y="288" width="72" height="72" fill="white" fill-opacity="0.8"/>
<rect x="504" y="216" width="72" height="72" fill="white" fill-opacity="0.4"/>
<rect x="504" y="144" width="72" height="72" fill="white" fill-opacity="0.8"/>
<rect x="504" y="72" width="72" height="72" fill="white" fill-opacity="0.4"/>
<rect x="504" width="72" height="72" fill="white" fill-opacity="0.4"/>
</g>
</svg>
