<svg width="360" height="216" viewBox="0 0 360 216" fill="none" xmlns="http://www.w3.org/2000/svg">
<rect width="72" height="72" transform="matrix(1 0 0 -1 0 144)" fill="#FF666F" fill-opacity="0.3"/>
<rect width="72" height="72" transform="matrix(1 0 0 -1 72 144)" fill="#FF666F"/>
<rect width="72" height="72" transform="matrix(1 0 0 -1 144 72)" fill="#FF666F" fill-opacity="0.3"/>
<rect width="72" height="72" transform="matrix(1 0 0 -1 144 216)" fill="#FF666F"/>
<rect width="72" height="72" transform="matrix(1 0 0 -1 216 144)" fill="#FF666F"/>
<rect width="72" height="72" transform="matrix(1 0 0 -1 288 144)" fill="#FF666F" fill-opacity="0.3"/>
<rect width="72" height="72" transform="matrix(1 0 0 -1 288 72)" fill="#FF666F"/>
<rect x="288" y="144" width="72" height="72" fill="#FF666F" fill-opacity="0.3"/>
</svg>
