<svg width="320" height="642" viewBox="0 0 320 642" fill="none" xmlns="http://www.w3.org/2000/svg">
<g opacity="0.05">
<rect width="64.2" height="64.2" transform="matrix(4.37114e-08 -1 -1 -4.37114e-08 321 642)" fill="white"/>
<rect width="64.2" height="64.2" transform="matrix(4.37114e-08 -1 -1 -4.37114e-08 321 577.801)" fill="white" fill-opacity="0.3"/>
<rect width="64.2" height="64.2" transform="matrix(4.37114e-08 -1 -1 -4.37114e-08 321 513.6)" fill="white"/>
<rect width="64.2" height="64.2" transform="matrix(4.37114e-08 -1 -1 -4.37114e-08 321 449.4)" fill="white"/>
<rect width="64.2" height="64.2" transform="matrix(4.37114e-08 -1 -1 -4.37114e-08 256.801 449.4)" fill="white" fill-opacity="0.3"/>
<rect width="64.2" height="64.2" transform="matrix(4.37114e-08 -1 -1 -4.37114e-08 256.801 385.199)" fill="white" fill-opacity="0.3"/>
<rect width="64.2" height="64.2" transform="matrix(4.37114e-08 -1 -1 -4.37114e-08 321 321)" fill="white"/>
<rect width="64.2" height="64.2" transform="matrix(4.37114e-08 -1 -1 -4.37114e-08 321 256.801)" fill="white" fill-opacity="0.3"/>
<rect width="64.2" height="64.2" transform="matrix(4.37114e-08 -1 -1 -4.37114e-08 256.801 256.799)" fill="white"/>
<rect width="64.2" height="64.2" transform="matrix(4.37114e-08 -1 -1 -4.37114e-08 192.602 192.6)" fill="white" fill-opacity="0.3"/>
<rect width="64.2" height="64.2" transform="matrix(4.37114e-08 -1 -1 -4.37114e-08 128.398 192.6)" fill="white"/>
<rect width="64.2" height="64.2" transform="matrix(4.37114e-08 -1 -1 -4.37114e-08 256.801 128.4)" fill="white"/>
<rect width="64.2" height="64.2" transform="matrix(4.37114e-08 -1 -1 -4.37114e-08 192.602 513.6)" fill="white" fill-opacity="0.3"/>
<rect width="64.2" height="64.2" transform="matrix(4.37114e-08 -1 -1 -4.37114e-08 192.602 128.4)" fill="white" fill-opacity="0.3"/>
<rect width="64.2" height="64.2" transform="matrix(4.37114e-08 -1 -1 -4.37114e-08 192.602 64.1992)" fill="white"/>
<rect width="64.2" height="64.2" transform="matrix(4.37114e-08 -1 -1 -4.37114e-08 128.398 64.1992)" fill="white" fill-opacity="0.3"/>
<rect width="64.2" height="64.2" transform="matrix(4.37114e-08 -1 -1 -4.37114e-08 64.1992 64.1992)" fill="white"/>
</g>
</svg>
