<svg width="649" height="361" viewBox="0 0 649 361" fill="none" xmlns="http://www.w3.org/2000/svg">
<g opacity="0.15">
<rect width="72.0037" height="72.0038" transform="matrix(1 0 0 -1 72 288.808)" fill="white" fill-opacity="0.8"/>
<rect width="72.0037" height="72.0038" transform="matrix(1 0 0 -1 432.02 144.798)" fill="white" fill-opacity="0.8"/>
<rect width="72.0037" height="72.0038" transform="matrix(1 0 0 -1 0 360.811)" fill="white" fill-opacity="0.4"/>
<rect width="72.0037" height="72.0038" transform="matrix(1 0 0 -1 144.008 360.811)" fill="white" fill-opacity="0.8"/>
<rect width="72.0037" height="72.0038" transform="matrix(1 0 0 -1 360.012 361)" fill="white" fill-opacity="0.4"/>
<rect width="72.0037" height="72.0038" transform="matrix(1 0 0 -1 144.008 216.802)" fill="white" fill-opacity="0.8"/>
<rect width="72.0037" height="72.0038" transform="matrix(1 0 0 -1 216.016 360.811)" fill="white" fill-opacity="0.4"/>
<rect width="72.0037" height="72.0038" transform="matrix(1 0 0 -1 288.016 288.808)" fill="white" fill-opacity="0.8"/>
<rect width="72.0037" height="72.0038" transform="matrix(1 0 0 -1 360.012 72.7949)" fill="white" fill-opacity="0.4"/>
<rect width="72.0037" height="72.0038" transform="matrix(1 0 0 -1 216.016 288.808)" fill="white" fill-opacity="0.4"/>
<rect width="72.0037" height="72.0038" transform="matrix(1 0 0 -1 288.016 360.811)" fill="white" fill-opacity="0.8"/>
<rect width="72.0037" height="72.0038" transform="matrix(1 0 0 -1 576.027 216.802)" fill="white" fill-opacity="0.8"/>
<rect width="72.0037" height="72.0038" transform="matrix(1 0 0 -1 432.02 72.7949)" fill="white" fill-opacity="0.4"/>
<rect width="72.0037" height="72.0038" transform="matrix(1 0 0 -1 360.012 216.992)" fill="white" fill-opacity="0.8"/>
<rect width="72.0037" height="72.0038" transform="matrix(1 0 0 -1 288.016 216.802)" fill="white" fill-opacity="0.4"/>
<rect width="72.0037" height="72.0038" transform="matrix(1 0 0 -1 288.016 144.798)" fill="white" fill-opacity="0.8"/>
<rect width="72.0037" height="72.0038" transform="matrix(1 0 0 -1 432.02 288.996)" fill="white" fill-opacity="0.8"/>
<rect width="72.0037" height="72.0038" transform="matrix(1 0 0 -1 432.02 361)" fill="white" fill-opacity="0.4"/>
<rect width="72.0037" height="72.0038" transform="matrix(1 0 0 -1 72 360.811)" fill="white" fill-opacity="0.4"/>
<rect width="72.0037" height="72.0038" transform="matrix(1 0 0 -1 504.027 216.802)" fill="white" fill-opacity="0.8"/>
<rect width="72.0037" height="72.0038" transform="matrix(1 0 0 -1 576.027 72.7949)" fill="white" fill-opacity="0.8"/>
<rect width="72.0037" height="72.0038" transform="matrix(1 0 0 -1 576.027 144.798)" fill="white" fill-opacity="0.4"/>
<rect width="72.0037" height="72.0038" transform="matrix(1 0 0 -1 576.027 360.811)" fill="white" fill-opacity="0.4"/>
<rect width="72.0037" height="72.0038" transform="matrix(1 0 0 -1 432.02 216.802)" fill="white" fill-opacity="0.4"/>
<rect width="72.0037" height="72.0038" transform="matrix(1 0 0 -1 504.027 144.798)" fill="white" fill-opacity="0.4"/>
<rect width="72.0037" height="72.0038" transform="matrix(1 0 0 -1 360.012 288.996)" fill="white" fill-opacity="0.4"/>
<rect width="72.0037" height="72.0038" transform="matrix(1 0 0 -1 504.027 288.996)" fill="white" fill-opacity="0.4"/>
<rect width="72.0037" height="72.0038" transform="matrix(1 0 0 -1 504.027 361)" fill="white" fill-opacity="0.8"/>
<rect width="72.0037" height="72.0038" transform="matrix(1 0 0 -1 576.027 288.808)" fill="white" fill-opacity="0.8"/>
</g>
</svg>
