<svg width="193" height="193" viewBox="0 0 193 193" fill="none" xmlns="http://www.w3.org/2000/svg">
<rect width="193" height="193" rx="96.5" fill="#ECECEC"/>
<path fill-rule="evenodd" clip-rule="evenodd" d="M107.347 106.93C102.256 110.644 94.8774 112.625 88.5243 112.625C79.6163 112.625 71.5968 109.364 65.5297 103.942C65.053 103.515 65.4801 102.934 66.0521 103.266C72.5997 107.036 80.6955 109.304 89.0582 109.304C94.6982 109.304 100.903 108.149 106.607 105.753C107.469 105.391 108.19 106.311 107.347 106.93Z" fill="#C1C1C1"/>
<path fill-rule="evenodd" clip-rule="evenodd" d="M109.464 104.534C108.815 103.711 105.162 104.145 103.522 104.338C103.023 104.398 102.947 103.968 103.397 103.659C106.306 101.632 111.081 102.217 111.637 102.896C112.194 103.579 111.492 108.315 108.758 110.576C108.339 110.923 107.938 110.738 108.125 110.278C108.739 108.761 110.116 105.361 109.464 104.534Z" fill="#C1C1C1"/>
<path fill-rule="evenodd" clip-rule="evenodd" d="M103.638 89.3529V87.383C103.638 87.0849 103.867 86.8849 104.141 86.8849H113.053C113.339 86.8849 113.568 87.0887 113.568 87.383V89.0699C113.564 89.3529 113.324 89.7227 112.897 90.3076L108.279 96.8323C109.995 96.7907 111.806 97.0436 113.362 97.9115C113.713 98.1077 113.808 98.3945 113.835 98.6776V100.779C113.835 101.066 113.514 101.402 113.179 101.229C110.437 99.8059 106.795 99.6512 103.764 101.244C103.455 101.41 103.131 101.078 103.131 100.791V98.7946C103.131 98.4738 103.134 97.9266 103.459 97.4398L108.809 89.8472H104.153C103.867 89.8472 103.638 89.6472 103.638 89.3529Z" fill="#070707"/>
<path fill-rule="evenodd" clip-rule="evenodd" d="M71.1288 101.644H68.4175C68.1582 101.625 67.9523 101.432 67.9332 101.187V87.417C67.9332 87.1416 68.1658 86.9227 68.4556 86.9227H70.9839C71.247 86.934 71.4568 87.134 71.4758 87.3831V89.1831H71.5254C72.1851 87.4434 73.4245 86.6321 75.0947 86.6321C76.7917 86.6321 77.8518 87.4434 78.6145 89.1831C79.2704 87.4434 80.7614 86.6321 82.3592 86.6321C83.4956 86.6321 84.7387 87.0963 85.4976 88.1378C86.3556 89.2963 86.1802 90.9793 86.1802 92.4548L86.1764 101.146C86.1764 101.421 85.9438 101.644 85.654 101.644H82.9465C82.6757 101.625 82.4583 101.41 82.4583 101.146V93.8473C82.4583 93.2662 82.5117 91.8171 82.3821 91.2661C82.18 90.3416 81.5736 90.0812 80.7881 90.0812C80.1322 90.0812 79.4458 90.5152 79.1674 91.2095C78.889 91.9039 78.9157 93.0662 78.9157 93.8473V101.146C78.9157 101.421 78.6831 101.644 78.3933 101.644H75.6858C75.4112 101.625 75.1977 101.41 75.1977 101.146L75.1939 93.8473C75.1939 92.3114 75.4494 90.051 73.5236 90.051C71.575 90.051 71.6512 92.2548 71.6512 93.8473V101.146C71.6512 101.421 71.4186 101.644 71.1288 101.644Z" fill="#070707"/>
<path fill-rule="evenodd" clip-rule="evenodd" d="M121.24 86.6321C125.263 86.6321 127.441 90.051 127.441 94.3983C127.441 98.5983 125.035 101.93 121.24 101.93C117.29 101.93 115.139 98.5116 115.139 94.2511C115.139 89.9642 117.316 86.6321 121.24 86.6321ZM121.263 89.4435C119.265 89.4435 119.139 92.1379 119.139 93.8171C119.139 95.5002 119.112 99.0927 121.24 99.0927C123.341 99.0927 123.441 96.1945 123.441 94.4285C123.441 93.2662 123.391 91.8775 123.036 90.7756C122.731 89.8171 122.125 89.4435 121.263 89.4435Z" fill="#070707"/>
<path fill-rule="evenodd" clip-rule="evenodd" d="M132.658 101.644H129.958C129.687 101.625 129.47 101.41 129.47 101.146L129.466 87.3717C129.489 87.1189 129.714 86.9227 129.988 86.9227H132.501C132.738 86.934 132.932 87.0925 132.986 87.3076V89.4133H133.035C133.794 87.5302 134.858 86.6321 136.73 86.6321C137.947 86.6321 139.133 87.0661 139.895 88.2548C140.605 89.3567 140.605 91.2095 140.605 92.5416V101.21C140.574 101.451 140.349 101.644 140.082 101.644H137.363C137.115 101.625 136.91 101.444 136.883 101.21V93.7303C136.883 92.2247 137.058 90.0208 135.186 90.0208C134.526 90.0208 133.92 90.4586 133.619 91.1227C133.237 91.9643 133.188 92.802 133.188 93.7303V101.146C133.184 101.421 132.947 101.644 132.658 101.644Z" fill="#070707"/>
<path fill-rule="evenodd" clip-rule="evenodd" d="M96.5335 95.0662C96.5335 96.1115 96.5602 96.9832 96.0264 97.9115C95.5955 98.6663 94.9091 99.1304 94.1502 99.1304C93.1091 99.1304 92.499 98.3455 92.499 97.187C92.499 94.9001 94.5697 94.485 96.5335 94.485V95.0662ZM99.2677 101.606C99.0885 101.764 98.8292 101.776 98.6271 101.67C97.7271 100.93 97.5632 100.587 97.0712 99.8814C95.584 101.383 94.5277 101.832 92.602 101.832C90.3177 101.832 88.5445 100.44 88.5445 97.6511C88.5445 95.4737 89.7343 93.9907 91.4351 93.2662C92.907 92.6246 94.9624 92.5114 96.5335 92.3341V91.9869C96.5335 91.3491 96.5831 90.5944 96.2018 90.0435C95.8738 89.5491 95.2408 89.3453 94.6802 89.3453C93.6468 89.3453 92.7278 89.8699 92.5028 90.9567C92.4571 91.1982 92.2778 91.4359 92.03 91.4473L89.4025 91.168C89.1814 91.119 88.9335 90.9416 88.9983 90.6057C89.6008 87.451 92.4837 86.5 95.0616 86.5C96.381 86.5 98.1047 86.8472 99.1457 87.8359C100.465 89.0548 100.339 90.6812 100.339 92.451V96.6323C100.339 97.8889 100.866 98.4398 101.361 99.1191C101.533 99.3606 101.571 99.6512 101.35 99.8323C100.797 100.289 99.813 101.138 99.2715 101.613L99.2677 101.606Z" fill="#070707"/>
<path fill-rule="evenodd" clip-rule="evenodd" d="M60.989 95.0662C60.989 96.1115 61.0157 96.9832 60.4818 97.9115C60.0509 98.6662 59.3683 99.1304 58.6057 99.1304C57.5646 99.1304 56.9583 98.3455 56.9583 97.187C56.9583 94.9001 59.0289 94.485 60.989 94.485V95.0662ZM63.7232 101.606C63.544 101.764 63.2847 101.776 63.0826 101.67C62.1826 100.93 62.0224 100.587 61.5267 99.8814C60.0395 101.383 58.987 101.832 57.0574 101.832C54.777 101.832 53 100.44 53 97.6511C53 95.4737 54.1936 93.9907 55.8905 93.2662C57.3625 92.6246 59.4179 92.5114 60.989 92.3341V91.9869C60.989 91.3491 61.0386 90.5944 60.6611 90.0435C60.3293 89.5491 59.6963 89.3453 59.1395 89.3453C58.1061 89.3453 57.1833 89.8699 56.9583 90.9567C56.9125 91.1982 56.7333 91.4359 56.4892 91.4473L53.858 91.168C53.6368 91.1189 53.3928 90.9416 53.4538 90.6057C54.0601 87.451 56.9392 86.5 59.5171 86.5C60.8365 86.5 62.5601 86.8472 63.6012 87.8359C64.9206 89.0548 64.7948 90.6812 64.7948 92.451V96.6322C64.7948 97.8889 65.321 98.4398 65.8167 99.1191C65.9922 99.3606 66.0303 99.6512 65.8091 99.8323C65.2562 100.289 64.2723 101.138 63.7308 101.613L63.7232 101.606Z" fill="#070707"/>
</svg>
