<svg width="193" height="193" viewBox="0 0 193 193" fill="none" xmlns="http://www.w3.org/2000/svg">
<rect width="193" height="193" rx="96.5" fill="#ECECEC"/>
<path fill-rule="evenodd" clip-rule="evenodd" d="M90.987 88.0092C92.4852 87.7246 93.9834 87.4249 95.4667 87.1403C95.4517 93.7774 95.4517 100.4 95.4667 107.022C93.9834 106.722 92.4852 106.407 91.002 106.123C90.957 105.538 90.987 104.954 90.987 104.37C90.972 98.9313 90.972 93.4778 90.987 88.0092ZM127.229 90.9457C125.971 90.9757 124.682 91.3653 123.708 92.1743C122.899 92.8335 122.315 93.7325 121.985 94.7213C121.626 95.785 121.551 96.9387 121.686 98.0623C121.835 99.3508 122.345 100.624 123.244 101.568C123.948 102.317 124.907 102.842 125.911 103.066C127.169 103.351 128.533 103.306 129.716 102.752C130.585 102.362 131.304 101.673 131.814 100.864C132.383 99.9501 132.668 98.8863 132.758 97.8076C132.862 96.5941 132.728 95.3505 132.278 94.2119C131.889 93.1931 131.184 92.2792 130.241 91.6949C129.342 91.1405 128.278 90.9008 127.229 90.9457ZM126.57 86.7657C128.742 86.6159 131.02 87.0204 132.892 88.174C133.941 88.8183 134.84 89.6723 135.544 90.6761C136.159 91.575 136.608 92.5788 136.923 93.6276C137.252 94.7512 137.372 95.9348 137.387 97.1035C137.387 99.2459 136.893 101.433 135.709 103.246C134.675 104.864 133.102 106.123 131.304 106.782C130.136 107.216 128.907 107.426 127.664 107.456C125.326 107.501 122.914 106.932 121.011 105.553C119.393 104.4 118.21 102.707 117.61 100.819C117.191 99.5605 117.026 98.2121 117.041 96.8787C117.056 94.5565 117.73 92.1893 119.184 90.3614C120.367 88.8482 122.06 87.7695 123.903 87.2301C124.757 86.9605 125.656 86.8106 126.57 86.7657ZM62.3409 87.6497C63.4196 87.0204 64.6632 86.7208 65.9067 86.7357C67.8843 86.8106 69.7871 87.8294 70.9407 89.4475C71.525 88.6535 72.3341 88.0392 73.203 87.6047C75.1657 86.6608 77.5479 86.511 79.5705 87.335C80.5144 87.7246 81.3684 88.3239 82.0276 89.1029C82.7018 89.897 83.1513 90.8559 83.4209 91.8447C83.7056 92.8785 83.7805 93.9572 83.7506 95.0209C83.7506 99.0212 83.7506 103.036 83.7506 107.037C82.2673 106.737 80.7691 106.422 79.2709 106.138C79.2559 102.302 79.2709 98.4668 79.2559 94.6314C79.2709 93.7474 78.9562 92.8485 78.327 92.2342C77.6528 91.545 76.6639 91.2154 75.7051 91.2304C74.8511 91.2154 73.9821 91.4701 73.3079 92.0095C72.5438 92.6088 72.1393 93.5976 72.1393 94.5715C72.1393 98.7215 72.1393 102.887 72.1393 107.037C70.6411 106.737 69.1429 106.422 67.6446 106.138C67.6296 104.909 67.6446 103.666 67.6296 102.422C67.6296 99.8452 67.6296 97.2683 67.6296 94.6763C67.6596 93.7924 67.36 92.8785 66.7307 92.2492C66.1764 91.6799 65.4123 91.3503 64.6482 91.2604C63.914 91.1855 63.1649 91.2454 62.4757 91.5301C61.7566 91.8297 61.1423 92.399 60.8127 93.1032C60.588 93.5826 60.4831 94.107 60.4831 94.6314C60.4831 97.8676 60.4831 101.104 60.4831 104.34C60.4981 105.239 60.4681 106.138 60.4981 107.037C58.9999 106.752 57.5166 106.422 56.0334 106.153C56.0034 105.628 56.0484 105.089 56.0034 104.58C56.0184 103.98 56.0184 103.381 56.0034 102.782C56.0484 102.227 56.0034 101.658 56.0184 101.104C56.0184 99.5156 56.0184 97.9275 56.0184 96.3394C56.0034 95.3505 56.0334 94.3467 56.0034 93.3579C56.0184 92.8035 56.0184 92.2342 56.0034 91.6799C56.0334 90.5712 56.0184 89.4775 56.0184 88.3688C56.0334 88.2639 55.9435 88.0991 56.0633 88.0392C57.5466 87.7545 59.0148 87.4699 60.4981 87.1852C60.4831 87.8594 60.4981 88.5336 60.4981 89.2078C61.0225 88.5786 61.6367 88.0392 62.3409 87.6497ZM111.213 87.0354C111.932 86.9155 112.666 86.7957 113.385 86.6758C113.385 88.234 113.385 89.7921 113.385 91.3503C112.666 91.4851 111.947 91.62 111.228 91.7398C110.149 91.9196 109.026 92.2342 108.217 93.0133C107.557 93.6276 107.243 94.5265 107.183 95.4105C107.138 96.0397 107.168 96.669 107.168 97.3132C107.168 100.549 107.168 103.786 107.168 107.022C105.924 106.767 104.681 106.512 103.422 106.273C103.183 106.228 102.958 106.168 102.703 106.138C102.643 105.793 102.688 105.449 102.673 105.104C102.673 101.658 102.673 98.2271 102.673 94.7812C102.703 93.7025 102.883 92.6088 103.332 91.605C103.767 90.6012 104.531 89.7472 105.43 89.1179C106.628 88.2939 108.022 87.7995 109.43 87.4249C110.029 87.2901 110.599 87.1253 111.213 87.0354ZM92.7849 78.4505C93.504 78.3607 94.2831 78.4356 94.8974 78.87C95.6015 79.3345 95.9911 80.1735 96.006 80.9975C96.051 81.2372 95.9911 81.4919 95.9911 81.7317C95.9162 82.4808 95.5266 83.1999 94.8824 83.6194C94.2082 84.0689 93.3392 84.1438 92.5451 83.979C91.8859 83.8442 91.2717 83.4247 90.8971 82.8403C90.4626 82.1512 90.3877 81.2822 90.5525 80.4881C90.7023 79.739 91.2117 79.0498 91.9009 78.7202C92.1856 78.5854 92.4852 78.4955 92.7849 78.4505Z" fill="#070707"/>
</svg>
