<svg width="193" height="193" viewBox="0 0 193 193" fill="none" xmlns="http://www.w3.org/2000/svg">
<rect width="193" height="193" rx="96.5" fill="#ECECEC"/>
<path d="M58.6736 82.5H48V108.75L58.6736 82.5Z" fill="#070707"/>
<path d="M66.1836 82.5H76.8433V108.75L66.1836 82.5Z" fill="#070707"/>
<path d="M62.4275 92.1748L69.2211 108.75H64.7639L62.7335 103.473H57.7617L62.4275 92.1748Z" fill="#070707"/>
<path d="M94.255 99.1937L95.5136 102.905C95.5553 102.998 95.6179 103.041 95.7291 103.041H98.149C98.2811 103.041 98.3019 102.976 98.2811 102.841L93.2815 88.5607C93.2607 88.4463 93.2398 88.4248 93.1285 88.4248H90.1246C90.0412 88.4248 89.9925 88.4892 89.9925 88.5821C89.9508 89.3329 89.8882 89.5618 89.7978 89.7834L85.3406 102.819C85.3197 102.976 85.3684 103.041 85.4936 103.041H87.6561C87.7882 103.041 87.8508 102.998 87.8995 102.862L89.0885 99.1937H94.255ZM89.7769 96.7696C90.4306 94.7388 91.2928 92.136 91.6405 90.6487H91.6613C92.0925 92.2075 93.1077 95.2966 93.5666 96.7696H89.7769Z" fill="#070707"/>
<path d="M104.711 103.262C106.011 103.262 107.395 103.018 108.799 102.396C108.911 102.353 108.932 102.303 108.932 102.196C108.89 101.796 108.841 101.216 108.841 100.773V87.3299C108.841 87.2441 108.841 87.2012 108.737 87.2012H106.38C106.289 87.2012 106.248 87.2441 106.248 87.3585V91.9134C105.879 91.8705 105.622 91.8491 105.316 91.8491C101.512 91.8491 99.1758 94.4305 99.1758 97.6554C99.1758 101.395 101.575 103.262 104.711 103.262V103.262ZM106.248 100.773C105.858 100.902 105.427 100.952 104.989 100.952C103.264 100.952 101.853 99.9508 101.853 97.5195C101.853 95.3672 103.306 94.0944 105.232 94.0944C105.622 94.0944 105.962 94.1373 106.248 94.2517V100.773Z" fill="#070707"/>
<path d="M116.452 91.8496C113.205 91.8496 111.195 94.4095 111.195 97.5701C111.195 100.395 112.795 103.262 116.403 103.262C119.456 103.262 121.598 100.952 121.598 97.4986C121.598 94.4524 119.783 91.8496 116.452 91.8496ZM116.32 94.0949C118.156 94.0949 118.935 95.7181 118.935 97.5701C118.935 99.8583 117.787 100.995 116.452 100.995C114.804 100.995 113.831 99.5723 113.831 97.5201C113.831 95.4106 114.867 94.0949 116.32 94.0949V94.0949Z" fill="#070707"/>
<path d="M124.032 87.2012C123.941 87.2012 123.879 87.2441 123.879 87.3585V102.575C123.879 102.639 123.941 102.754 124.032 102.775C125.068 103.104 126.153 103.262 127.272 103.262C130.478 103.262 133.593 101.216 133.593 97.0977C133.593 94.1158 131.604 91.8491 128.489 91.8491C127.773 91.8491 127.105 91.9635 126.521 92.1637L126.493 87.3799C126.493 87.2226 126.452 87.2012 126.299 87.2012H124.032ZM130.93 97.3694C130.93 99.8364 129.289 100.995 127.516 100.995C127.147 100.995 126.82 100.973 126.521 100.88V94.3876C126.862 94.2517 127.272 94.1373 128.03 94.1373C129.741 94.1373 130.93 95.2528 130.93 97.3694Z" fill="#070707"/>
<path d="M142.393 98.1708C143.45 98.1708 144.319 98.1493 144.618 98.0778C144.73 98.0564 144.771 98.0135 144.792 97.9205C144.855 97.6774 144.883 97.1697 144.883 96.5476C144.883 94.431 143.645 91.8496 140.446 91.8496C137.178 91.8496 135.363 94.5883 135.363 97.6774C135.363 100.416 136.768 103.262 140.704 103.262C142.178 103.262 143.13 103.019 143.951 102.618C144.034 102.576 144.076 102.504 144.076 102.375V100.523C144.076 100.416 144.013 100.395 143.951 100.438C143.13 100.795 142.24 100.974 141.267 100.974C139.063 100.974 138.061 99.7225 137.999 98.1708H142.393ZM137.999 96.2544C138.172 95.1675 138.84 93.9876 140.335 93.9876C141.983 93.9876 142.414 95.4106 142.414 96.0542C142.414 96.0756 142.414 96.1686 142.414 96.233C142.324 96.2544 142.046 96.2544 141.225 96.2544H137.999Z" fill="#070707"/>
</svg>
