<svg width="193" height="193" viewBox="0 0 193 193" fill="none" xmlns="http://www.w3.org/2000/svg">
<rect width="193" height="193" rx="96.5" fill="#ECECEC"/>
<path fill-rule="evenodd" clip-rule="evenodd" d="M65.1213 85.5H50.3091C49.6972 85.5 49.1104 85.7476 48.6774 86.1883C48.2444 86.6291 48.0008 87.227 48 87.8507V102.925C47.9986 103.235 48.0569 103.541 48.1717 103.827C48.2866 104.114 48.4556 104.374 48.6692 104.594C48.8828 104.813 49.1368 104.988 49.4167 105.108C49.6965 105.227 49.9968 105.289 50.3002 105.29H65.1231C65.4264 105.29 65.7267 105.229 66.0068 105.11C66.2868 104.991 66.5412 104.818 66.7554 104.599C66.9696 104.38 67.1394 104.12 67.2551 103.834C67.3708 103.549 67.4301 103.242 67.4296 102.933V87.8507C67.4288 87.2271 67.1853 86.6293 66.7525 86.1886C66.3197 85.7479 65.733 85.5002 65.1213 85.5V85.5ZM56.3798 99.7545C56.3789 99.9632 56.2968 100.163 56.1515 100.31C56.0061 100.457 55.8095 100.539 55.6048 100.538H52.3646C52.1613 100.537 51.9667 100.454 51.8233 100.307C51.6799 100.16 51.5993 99.9617 51.5992 99.7545V89.9353C51.5991 89.728 51.6796 89.5292 51.8231 89.3823C51.9666 89.2354 52.1613 89.1525 52.3646 89.1517H55.6018C55.8054 89.1525 56.0005 89.2353 56.1445 89.3821C56.2885 89.5289 56.3697 89.7277 56.3705 89.9353L56.3798 99.7545ZM63.8483 95.246C63.8483 95.4538 63.7673 95.6532 63.6232 95.8002C63.479 95.9472 63.2835 96.0298 63.0796 96.0299H59.8334C59.6297 96.0291 59.4346 95.9463 59.2906 95.7994C59.1466 95.6526 59.0654 95.4536 59.0647 95.246V89.9353C59.0655 89.7277 59.1467 89.5289 59.2907 89.3821C59.4347 89.2353 59.6298 89.1525 59.8334 89.1517H63.0703C63.2737 89.1524 63.4685 89.2353 63.612 89.3822C63.7555 89.5291 63.8361 89.728 63.836 89.9353L63.8483 95.246Z" fill="#777777"/>
<path d="M88.2584 86.9502V90.7773H83.8108V105.291H79.5218V90.7773H75.0742V86.9502H88.2584Z" fill="#070707"/>
<path d="M93.7149 105.291H89.75V91.0143H93.7149V93.7477C94.4684 91.8218 95.6728 90.6765 97.8173 90.8162V95.0453C95.0159 94.8232 93.7149 95.521 93.7149 97.8087V105.291Z" fill="#070707"/>
<path d="M119.479 105.402C116.88 105.402 115.246 104.132 115.246 101.131V85.5H119.239V100.572C119.239 101.437 119.798 101.745 120.484 101.745C120.682 101.749 120.88 101.74 121.076 101.716V105.235C120.554 105.365 120.016 105.421 119.479 105.402Z" fill="#070707"/>
<path d="M127.81 105.402C125.211 105.402 123.574 104.132 123.574 101.131V85.5H127.567V100.572C127.567 101.437 128.131 101.745 128.828 101.745C129.024 101.75 129.221 101.74 129.416 101.716V105.235C128.891 105.366 128.351 105.422 127.81 105.402V105.402Z" fill="#070707"/>
<path d="M131.328 98.1459C131.328 93.7361 133.818 90.7188 138.106 90.7188C142.395 90.7188 144.833 93.7262 144.833 98.1459C144.833 102.566 142.368 105.625 138.107 105.625C133.847 105.625 131.328 102.527 131.328 98.1459ZM135.216 98.1459C135.216 100.294 136.1 101.997 138.107 101.997C140.115 101.997 140.949 100.294 140.949 98.1459C140.949 95.9983 140.092 94.3386 138.107 94.3386C136.122 94.3386 135.216 95.9949 135.216 98.1459Z" fill="#070707"/>
<path d="M103.169 99.4367C104.28 99.5609 105.395 99.6276 106.512 99.6364C109.55 99.6364 112.114 98.8054 112.114 95.8074C112.114 92.8979 109.478 90.7119 106.307 90.7119C102.037 90.7119 99.3008 93.869 99.3008 98.2788C99.3008 102.857 101.66 105.575 106.992 105.575C108.573 105.589 110.144 105.303 111.623 104.732V101.312C110.253 101.759 108.713 102.203 107.132 102.203C105.009 102.203 103.529 101.492 103.169 99.4367ZM106.226 93.8276C107.349 93.8276 108.252 94.6047 108.252 95.6677C108.252 97.0344 106.837 97.4633 105.205 97.4633C104.511 97.4599 103.818 97.4037 103.132 97.2952C103.184 96.6285 103.371 95.9802 103.683 95.3917C103.933 94.9254 104.3 94.5354 104.747 94.2619C105.194 93.9883 105.705 93.841 106.226 93.8352V93.8276Z" fill="#070707"/>
</svg>
