<svg width="193" height="193" viewBox="0 0 193 193" fill="none" xmlns="http://www.w3.org/2000/svg">
<rect width="193" height="193" rx="96.5" fill="#ECECEC"/>
<path d="M77.5704 93.3631H68.867L76.4042 89.1422L74.9095 86.63L67.3713 90.8509L71.7221 83.5405L69.1326 82.0904L64.7808 89.3989V80.959H61.7896V89.3999L57.4378 82.0904L54.8474 83.5405L59.1981 90.849L51.6619 86.63L50.1662 89.1422L57.7035 93.3631H49V96.2641H57.7025L50.1662 100.485L51.6609 102.997L59.1991 98.7764L54.8474 106.087L57.4369 107.537L61.7896 100.227V108.667H64.7808V100.046L69.2125 107.491L71.6412 106.131L67.2085 98.6849L74.9076 102.996L76.4032 100.484L68.867 96.2632H77.5695V93.3631H77.5704V93.3631ZM63.2852 98.757C62.7512 98.757 62.2225 98.6551 61.7291 98.4569C61.2358 98.2587 60.7875 97.9682 60.4099 97.6019C60.0323 97.2356 59.7327 96.8008 59.5283 96.3222C59.3239 95.8437 59.2187 95.3307 59.2186 94.8127C59.2185 94.2947 59.3237 93.7817 59.5279 93.3031C59.7322 92.8244 60.0317 92.3895 60.4092 92.0232C60.7867 91.6569 61.235 91.3662 61.7283 91.1679C62.2216 90.9696 62.7503 90.8675 63.2843 90.8675C64.3627 90.8674 65.3969 91.2829 66.1596 92.0225C66.9222 92.7622 67.3507 93.7656 67.3508 94.8118C67.351 95.858 66.9227 96.8614 66.1602 97.6013C65.3978 98.3411 64.3636 98.7568 63.2852 98.757V98.757Z" fill="#777777"/>
<path d="M85.2812 104.947V84.6777H89.116V104.947H85.2812V104.947ZM122.061 91.1726H125.723V92.8535C126.501 91.5097 128.319 90.781 129.875 90.781C131.808 90.781 133.364 91.5937 134.085 93.0761C135.209 91.3952 136.709 90.781 138.584 90.781C141.207 90.781 143.715 92.3206 143.715 96.016V104.947H139.996V96.7724C139.996 95.2882 139.246 94.1678 137.487 94.1678C135.843 94.1678 134.862 95.4009 134.862 96.8851V104.948H131.058V96.7724C131.058 95.2882 130.279 94.1678 128.548 94.1678C126.875 94.1678 125.895 95.3731 125.895 96.8851V104.948H122.061V91.1726V91.1726ZM97.7824 105.346C93.462 105.346 90.3337 102.237 90.3337 98.0599C90.3337 93.9499 93.4525 90.7671 97.7824 90.7671C102.133 90.7671 105.231 93.9794 105.231 98.0599C105.231 102.207 102.101 105.346 97.7824 105.346ZM97.7824 94.1383C96.7107 94.1397 95.6835 94.5536 94.926 95.289C94.1685 96.0244 93.7427 97.0212 93.7419 98.0609C93.7427 99.1005 94.1685 100.097 94.926 100.833C95.6835 101.568 96.7107 101.982 97.7824 101.983C98.8538 101.982 99.8808 101.568 100.638 100.832C101.395 100.097 101.821 99.1003 101.822 98.0609C101.821 97.0214 101.395 96.0247 100.638 95.2893C99.8808 94.5539 98.8538 94.14 97.7824 94.1383V94.1383ZM113.421 105.346C109.101 105.346 105.973 102.237 105.973 98.0599C105.973 93.9499 109.092 90.7671 113.421 90.7671C117.772 90.7671 120.87 93.9794 120.87 98.0599C120.87 102.207 117.738 105.346 113.421 105.346ZM113.421 94.0912C112.337 94.0929 111.298 94.5116 110.532 95.2554C109.766 95.9992 109.335 97.0075 109.334 98.059C109.335 99.1106 109.766 100.119 110.532 100.863C111.298 101.606 112.337 102.025 113.421 102.027C114.505 102.025 115.544 101.606 116.31 100.863C117.077 100.119 117.507 99.1106 117.508 98.059C117.507 97.0075 117.077 95.9992 116.31 95.2554C115.544 94.5116 114.505 94.0929 113.421 94.0912V94.0912Z" fill="#070707"/>
</svg>
