<svg width="193" height="193" viewBox="0 0 193 193" fill="none" xmlns="http://www.w3.org/2000/svg">
<rect width="193" height="193" rx="96.5" fill="#ECECEC"/>
<path d="M84.1422 89.9005C84.1422 89.4588 84.3224 89.0353 84.6432 88.723C84.964 88.4108 85.3991 88.2354 85.8528 88.2354C86.3065 88.2354 86.7415 88.4108 87.0623 88.723C87.3831 89.0353 87.5633 89.4588 87.5633 89.9005C87.5468 90.3313 87.3593 90.7392 87.0403 91.0383C86.7214 91.3374 86.2957 91.5046 85.8528 91.5046C85.4099 91.5046 84.9842 91.3374 84.6652 91.0383C84.3462 90.7392 84.1588 90.3313 84.1422 89.9005Z" fill="#070707"/>
<path d="M56.07 100.283C54.5978 100.283 53.5733 99.1443 53.5733 97.5163C53.5733 95.8895 54.5977 94.752 56.0712 94.752C57.5518 94.752 58.5869 95.8895 58.5869 97.5163C58.5869 99.1698 57.5745 100.283 56.07 100.283ZM56.07 92.3204C52.9539 92.3204 50.6919 94.5062 50.6919 97.5163C50.6919 100.528 52.9551 102.712 56.07 102.712C59.1992 102.712 61.4695 100.528 61.4695 97.5175C61.4695 94.5062 59.1992 92.3204 56.0712 92.3204H56.07ZM80.8296 97.7772C80.7211 97.5731 80.5841 97.3846 80.4222 97.2172L80.3269 97.1209L80.427 97.0282C80.57 96.8809 80.7164 96.707 80.857 96.5052L83.6086 92.5257H80.2686L78.2019 95.639C78.0851 95.806 77.8493 95.8895 77.4956 95.8895H77.025V90.0037C77.025 88.8267 76.271 88.6667 75.4575 88.6667H74.0638L74.0673 102.559H77.0262V98.3918H77.3038C77.6409 98.3918 77.8695 98.4301 77.9755 98.6086L79.6074 101.607C80.0637 102.421 80.5175 102.559 81.3727 102.559H83.6396L81.9505 99.8412L80.8308 97.7772H80.8296ZM95.1927 92.2972C93.6871 92.2972 92.727 92.9489 92.1886 93.4997L92.0099 93.6759L91.9456 93.4359C91.7884 92.8457 91.2547 92.5222 90.4531 92.5222H89.1273L89.1356 102.556H92.0742V97.9315C92.0742 97.4792 92.1337 97.0873 92.2576 96.729C92.584 95.6448 93.4965 94.9711 94.6364 94.9711C95.5536 94.9711 95.9122 95.4431 95.9122 96.6606V101.031C95.9122 102.07 96.4065 102.556 97.4749 102.556H98.8734L98.8687 96.1736C98.8687 93.6388 97.5977 92.2984 95.1927 92.2984V92.2972ZM85.8885 92.5257H84.496L84.5055 100.284V102.559H85.9909L86.0433 102.562L86.7366 102.559H87.4251V102.556H87.4299L87.4358 94.0505C87.4358 93.0243 86.932 92.5268 85.8897 92.5268L85.8885 92.5257ZM67.6112 100.283C66.1389 100.283 65.1134 99.1443 65.1134 97.5163C65.1134 95.8895 66.139 94.752 67.6124 94.752C69.0895 94.752 70.1282 95.8895 70.1282 97.5163C70.1282 99.1698 69.1157 100.283 67.6124 100.283H67.6112ZM67.6112 92.3204C64.4927 92.3204 62.2295 94.5062 62.2295 97.5163C62.2295 100.528 64.4928 102.712 67.6124 102.712C70.7369 102.712 73.012 100.528 73.012 97.5175C73.012 94.5062 70.7369 92.3204 67.6124 92.3204" fill="#070707"/>
<path d="M105.064 99.8412C103.457 99.8412 102.885 98.4776 102.885 97.1986C102.885 96.635 103.032 94.7995 104.91 94.7995C105.843 94.7995 107.085 95.0592 107.085 97.2925C107.085 99.3994 105.986 99.8412 105.064 99.8412ZM108.611 92.4989C108.054 92.4989 107.625 92.7158 107.409 93.1112L107.328 93.2642L107.192 93.1483C106.718 92.7494 105.868 92.2751 104.487 92.2751C101.739 92.2751 99.8895 94.2846 99.8895 97.2728C99.8895 100.26 101.804 102.347 104.542 102.347C105.477 102.347 106.217 102.134 106.803 101.702L107.029 101.536V101.815C107.029 103.155 106.139 103.895 104.525 103.895C103.74 103.895 103.027 103.709 102.548 103.54C101.926 103.357 101.559 103.509 101.308 104.118L101.075 104.679L100.745 105.5L100.948 105.605C101.982 106.139 103.327 106.458 104.542 106.458C107.044 106.458 109.967 105.211 109.967 101.702L109.977 92.4989H108.611Z" fill="#070707"/>
<path d="M45.128 100.168L42.7361 100.166V97.3829C42.7361 96.7869 42.9732 96.4785 43.4961 96.4066H45.128C46.2917 96.4066 47.0445 97.1209 47.0457 98.2769C47.0445 99.4643 46.3108 100.167 45.128 100.167V100.168ZM42.7361 91.9261C42.7361 91.2849 43.0149 90.9799 43.6259 90.9405H44.8505C45.8999 90.9405 46.5288 91.5516 46.5288 92.5755C46.5288 93.3547 46.0976 94.2649 44.8886 94.2649H42.7361V91.9261ZM48.1822 95.4372L47.7497 95.2007L48.1273 94.8864C48.5669 94.5189 49.3019 93.6921 49.3019 92.2659C49.3019 90.0813 47.5627 88.6713 44.8695 88.6713H41.4461C41.0609 88.685 40.6958 88.8424 40.4266 89.1109C40.1574 89.3795 40.0046 89.7386 40 90.1138V102.509H44.9302C47.9236 102.509 49.8557 100.923 49.8557 98.466C49.8557 97.1429 49.2316 96.0124 48.1822 95.4372Z" fill="#070707"/>
<path d="M111.129 101.005C111.129 100.081 111.894 99.3345 112.836 99.3345C113.291 99.3345 113.727 99.5104 114.049 99.8235C114.37 100.137 114.551 100.561 114.551 101.004C114.551 101.447 114.37 101.872 114.049 102.185C113.727 102.498 113.291 102.674 112.836 102.674C111.895 102.674 111.129 101.926 111.129 101.004" fill="#777777"/>
<path d="M130.593 100.283C129.12 100.283 128.093 99.1442 128.093 97.5162C128.093 95.8894 129.12 94.7519 130.593 94.7519C132.072 94.7519 133.11 95.8894 133.11 97.5162C133.11 99.1697 132.097 100.283 130.593 100.283ZM130.593 92.3203C127.474 92.3203 125.212 94.5061 125.212 97.5162C125.212 100.528 127.474 102.712 130.593 102.712C133.718 102.712 135.992 100.528 135.992 97.5174C135.992 94.5061 133.717 92.3203 130.593 92.3203Z" fill="#777777"/>
<path d="M149.118 92.3308C148.511 92.333 147.913 92.4678 147.367 92.7253C146.821 92.9828 146.341 93.3564 145.963 93.8185L145.751 94.0805L145.585 93.7872C145.039 92.8213 144.103 92.3308 142.801 92.3308C141.435 92.3308 140.519 93.0729 140.093 93.5135L139.815 93.8069L139.707 93.4207C139.553 92.8642 139.044 92.5592 138.274 92.5592H137.039L137.027 102.554H139.833V98.1424C139.833 97.7551 139.883 97.3736 139.981 96.9736C140.249 95.9068 140.986 94.76 142.223 94.8748C142.985 94.9467 143.36 95.5207 143.36 96.6292V102.554H146.185V98.1424C146.185 97.6589 146.231 97.2971 146.343 96.9353C146.57 95.9172 147.339 94.8737 148.533 94.8737C149.398 94.8737 149.717 95.3491 149.717 96.6292V101.093C149.717 102.102 150.179 102.554 151.217 102.554H152.536L152.539 96.1735C152.539 93.6237 151.386 92.3308 149.118 92.3308ZM123.586 99.084C123.578 99.0944 122.371 100.333 120.781 100.333C119.332 100.333 117.87 99.4678 117.87 97.5371C117.87 95.8697 119.004 94.7044 120.628 94.7044C121.155 94.7044 121.755 94.8876 121.849 95.1972L121.863 95.2493C121.923 95.4625 122.053 95.6504 122.234 95.7839C122.415 95.9175 122.636 95.9892 122.863 95.988L124.4 95.9903V94.6823C124.4 92.9569 122.145 92.3308 120.628 92.3308C117.384 92.3308 115.03 94.5293 115.03 97.558C115.03 100.584 117.358 102.781 120.569 102.781C123.354 102.781 124.869 100.998 124.883 100.981L124.964 100.884L123.747 98.9181L123.586 99.084Z" fill="#777777"/>
</svg>
