<svg width="193" height="193" viewBox="0 0 193 193" fill="none" xmlns="http://www.w3.org/2000/svg">
<rect width="193" height="193" rx="96.5" fill="#ECECEC"/>
<path d="M106.352 89.6252C104.264 89.6252 102.222 91.569 101.987 94.3776V89.8568H98.9882V103.488H102.024V96.8901C102.024 95.0418 103.299 92.4345 106.352 92.4345V89.6252Z" fill="#070707"/>
<path d="M138.198 101.306V91.9668H139.957C142.302 91.9668 144.208 93.4731 144.208 96.5611C144.208 99.6491 142.302 101.306 139.957 101.306H138.198ZM135.194 103.49H140.324C143.475 103.49 147.358 101.381 147.358 96.5611C147.358 91.8162 143.475 89.8579 140.324 89.8579H135.194V103.49Z" fill="#070707"/>
<path d="M123.698 96.7119C123.698 94.2265 124.943 92.1929 126.995 92.1929C128.974 92.1929 130.073 94.2265 130.073 96.7119C130.073 99.1974 128.974 101.231 126.995 101.231C124.943 101.231 123.698 99.1974 123.698 96.7119ZM120.62 96.8625C120.62 100.93 122.672 103.792 125.896 103.792C128.241 103.792 129.633 102.21 130.366 99.6492V103.49H133.37V89.8581H130.366V93.4733C129.707 91.0632 128.314 89.6322 126.116 89.6322C122.818 89.6322 120.62 92.7201 120.62 96.8625Z" fill="#070707"/>
<path d="M52.2014 103.792C48.464 103.792 46.2656 100.704 46.2656 96.8625C46.2656 92.8708 48.6839 89.6322 53.3006 89.6322C58.0638 89.6322 59.676 92.9461 59.7493 94.829H56.3051C56.2318 93.7746 55.3524 92.1929 53.2273 92.1929C50.9556 92.1929 49.49 94.2265 49.49 96.7119C49.49 99.1974 50.9556 101.231 53.2273 101.231C55.2792 101.231 56.1585 99.5739 56.5249 97.917H53.2273V96.5612H60.1469V103.49H57.1112V99.122C56.8914 100.704 55.9387 103.792 52.2014 103.792Z" fill="#070707"/>
<path d="M66.3018 103.791C63.4439 103.791 61.6852 101.833 61.6852 97.9168V89.8579H64.7629V97.9168C64.7629 99.9503 65.7156 100.929 67.3277 100.929C70.4789 100.929 71.6513 96.9377 71.6513 94.151V89.8579H74.7291V103.49H71.7246V98.444C71.1383 101.231 69.5262 103.791 66.3018 103.791Z" fill="#070707"/>
<path d="M93.1212 89.625C90.4952 89.625 88.8387 92.2321 88.298 94.6426C88.2056 91.4122 86.6599 89.625 84.1868 89.625C82.0501 89.625 80.0677 91.5834 79.5529 94.6816V89.8569H76.5526V103.489H79.5914V98.6023C79.5914 97.3907 80.0828 92.4185 83.1419 92.4185C85.1235 92.4185 85.3301 94.2556 85.3301 96.7669V103.489H88.3675V98.6023C88.3675 97.3907 88.8793 92.4185 91.9383 92.4185C93.9184 92.4185 94.1229 94.2556 94.1229 96.7669V103.489H97.1644V95.4259C97.1782 91.5574 95.8493 89.625 93.1212 89.625Z" fill="#070707"/>
<path d="M112.872 89.625C108.938 89.625 106.272 92.7953 106.272 96.7083C106.272 101.02 108.808 103.792 112.872 103.792C116.806 103.792 119.519 100.621 119.519 96.7083C119.519 92.3967 116.934 89.625 112.872 89.625ZM112.872 101.379C110.582 101.379 109.098 99.3858 109.098 96.7083C109.098 94.0308 110.587 92.038 112.872 92.038C115.157 92.038 116.586 94.0308 116.586 96.7083C116.586 99.3858 115.155 101.379 112.872 101.379Z" fill="#070707"/>
</svg>
