<svg width="193" height="193" viewBox="0 0 193 193" fill="none" xmlns="http://www.w3.org/2000/svg">
<rect width="193" height="193" rx="96.5" fill="#ECECEC"/>
<g clip-path="url(#clip0_482_22223)">
<path d="M131.072 95.3357V102.868H133.514V97.8465H142.446V102.868H144.888V95.3357H131.072ZM133.235 92.8936H142.655C143.981 92.6529 144.923 91.4835 145.202 90.3828H130.688C130.967 91.4835 131.944 92.6185 133.235 92.8936ZM123.641 102.868C124.862 102.352 125.525 101.458 125.804 100.426H114.814V90.4172H112.336V102.868H123.641ZM94.0193 92.8593H102.742C104.068 92.4809 105.149 91.4835 105.428 90.4172H91.612V97.7777H102.916V100.357H94.0542C92.6587 100.736 91.4724 101.664 90.8793 102.868H105.358V95.3357H94.0542L94.0193 92.8593ZM72.5274 92.8936H81.9476C83.2734 92.6529 84.2503 91.4835 84.4945 90.3828H69.9455C70.2247 91.4835 71.2016 92.6185 72.5274 92.8936ZM72.5274 97.8121H81.9476C83.2734 97.5714 84.2503 96.4019 84.4945 95.3013H69.9455C70.2247 96.4019 71.2016 97.537 72.5274 97.8121ZM72.5274 102.868H81.9476C83.2734 102.627 84.2503 101.458 84.4945 100.357H69.9455C70.2247 101.458 71.2016 102.627 72.5274 102.868Z" fill="#070707"/>
<path d="M48 90.4172C48.2791 91.5178 49.256 92.6185 50.5469 92.8936H54.5244L54.7337 92.9624V102.834H57.2108V92.9624L57.4202 92.8936H61.3976C62.7234 92.5497 63.6654 91.5178 63.9445 90.4172V90.3828L48 90.4172Z" fill="#070707"/>
</g>
<defs>
<clipPath id="clip0_482_22223">
<rect width="97" height="30" fill="white" transform="translate(48 81)"/>
</clipPath>
</defs>
</svg>
