<svg width="193" height="193" viewBox="0 0 193 193" fill="none" xmlns="http://www.w3.org/2000/svg">
<rect width="193" height="193" rx="96.5" fill="#ECECEC"/>
<path d="M48 80.417H68.9395V90.7384H58.4698L48 80.417ZM48 90.7384H58.4698L68.9395 101.06H48V90.7384ZM48 101.06H58.4698V111.381L48 101.06Z" fill="#070707"/>
<path d="M80.7543 88.5595H89.2185V91.2111H83.958V94.8958H89.2185V97.4888H83.958V102.207H80.7543V88.5595ZM90.9587 92.8095H93.9847V94.7787C94.1427 94.102 94.4661 93.5826 94.9537 93.219C95.4538 92.8417 96.009 92.6537 96.6149 92.6537C96.9315 92.6537 97.1955 92.6802 97.4058 92.7316V95.5003C97.104 95.4644 96.8003 95.445 96.4961 95.4417C95.6655 95.4417 95.0399 95.7076 94.6174 96.2407C94.1964 96.7606 93.9847 97.5403 93.9847 98.5806V102.207H90.9602V92.8095H90.9587ZM102.182 102.46C101.26 102.46 100.455 102.245 99.7697 101.817C99.0972 101.388 98.5626 100.779 98.2273 100.062C97.8714 99.3087 97.6922 98.4564 97.6922 97.5082C97.6922 96.5722 97.8781 95.7269 98.2469 94.9737C98.5928 94.246 99.1417 93.6307 99.8291 93.1996C100.527 92.7708 101.325 92.556 102.222 92.556C102.894 92.556 103.495 92.6995 104.022 92.9852C104.549 93.2718 104.944 93.6619 105.208 94.1549V92.8095H108.214V102.207H105.208V100.881C104.944 101.349 104.536 101.732 103.982 102.031C103.428 102.321 102.81 102.468 102.182 102.46ZM103.053 99.984C103.778 99.984 104.338 99.7503 104.734 99.2823C105.129 98.8143 105.327 98.2226 105.327 97.5082C105.327 96.8064 105.129 96.2213 104.734 95.7534C104.338 95.2854 103.778 95.0517 103.053 95.0517C102.366 95.0517 101.814 95.2788 101.392 95.734C100.983 96.1892 100.778 96.78 100.778 97.5082C100.778 98.2363 100.983 98.8337 101.392 99.3017C101.814 99.7569 102.367 99.984 103.053 99.984ZM110.33 92.8095H113.356V94.1743C113.568 93.6926 113.91 93.3025 114.384 93.0046C114.873 92.7066 115.44 92.556 116.085 92.556C117.588 92.556 118.584 93.134 119.071 94.2914C119.34 93.7667 119.759 93.3328 120.278 93.0438C120.833 92.7146 121.47 92.546 122.117 92.556C124.372 92.556 125.499 93.8291 125.499 96.3772V102.207H122.453V96.9231C122.453 96.287 122.335 95.819 122.097 95.5196C121.86 95.2212 121.504 95.071 121.029 95.071C120.515 95.071 120.12 95.2467 119.843 95.5975C119.566 95.9356 119.427 96.5264 119.427 97.3717V102.207H116.382V96.9037C116.382 96.2671 116.264 95.8053 116.026 95.5196C115.803 95.2212 115.453 95.071 114.979 95.071C114.451 95.071 114.049 95.2467 113.772 95.5975C113.495 95.9356 113.356 96.5264 113.356 97.3717V102.207H110.331V92.8095H110.33ZM136.866 97.0208C136.866 97.4232 136.839 97.859 136.785 98.327H129.746C129.773 98.938 129.983 99.4051 130.379 99.7309C130.775 100.055 131.31 100.218 131.981 100.218C132.917 100.218 133.511 99.9382 133.761 99.3796H136.727C136.582 100.303 136.068 101.049 135.185 101.622C134.315 102.18 133.246 102.46 131.981 102.46C130.346 102.46 129.061 102.024 128.124 101.154C127.202 100.282 126.74 99.0679 126.74 97.5082C126.74 96.4943 126.951 95.6169 127.373 94.876C127.78 94.136 128.409 93.5372 129.172 93.1604C129.951 92.7581 130.854 92.556 131.883 92.556C132.858 92.556 133.721 92.7444 134.473 93.1217C135.237 93.499 135.824 94.025 136.233 94.7008C136.655 95.3775 136.866 96.1505 136.866 97.0208ZM133.878 96.4749C133.865 95.8511 133.688 95.3761 133.344 95.0517C133.002 94.7272 132.507 94.5643 131.861 94.5643C131.215 94.5643 130.701 94.7395 130.319 95.0908C129.95 95.429 129.759 95.8898 129.745 96.4749H133.878ZM138.2 92.8095H141.226V94.7787C141.384 94.102 141.707 93.5826 142.195 93.219C142.668 92.8516 143.253 92.6523 143.856 92.6537C144.172 92.6537 144.437 92.6802 144.647 92.7316V95.5003C144.345 95.4644 144.041 95.445 143.737 95.4417C142.907 95.4417 142.281 95.7076 141.859 96.2407C141.436 96.7606 141.226 97.5403 141.226 98.5806V102.207H138.2V92.8095Z" fill="#070707"/>
</svg>
