<svg width="193" height="193" viewBox="0 0 193 193" fill="none" xmlns="http://www.w3.org/2000/svg">
<rect width="193" height="193" rx="96.5" fill="#ECECEC"/>
<g clip-path="url(#clip0_482_22239)">
<path d="M75.3498 101.903C72.669 101.903 70.8944 99.8935 70.3993 99.1151C71.0345 94.1907 72.8933 92.6337 75.3498 92.6337C77.7784 92.6337 79.6653 94.5166 79.6653 97.2684C79.6653 100.02 77.7784 101.903 75.3498 101.903ZM75.3498 89.6104C70.9785 89.6104 68.5312 92.3712 67.8307 95.2136C67.0367 93.7653 66.4483 91.8281 65.9906 90.0267H59.9472V97.3137C59.9472 99.9569 58.7049 101.912 56.2763 101.912C53.8478 101.912 52.456 99.9569 52.456 97.3137L52.484 90.0267H49V97.3137C49 99.4409 49.7099 101.369 51.0082 102.745C52.3439 104.166 54.1654 104.908 56.2763 104.908C60.4796 104.908 63.4126 101.785 63.4126 97.3137V92.4165C63.8515 94.0278 64.8977 97.1236 66.8966 99.8392L65.0285 110.15H68.5686L69.8015 102.844C70.2032 103.17 70.6328 103.46 71.0905 103.723C72.2768 104.447 73.6311 104.854 75.0323 104.899C75.0323 104.899 75.2471 104.908 75.3592 104.908C79.6933 104.908 83.1399 101.659 83.1399 97.2684C83.1399 92.8782 79.6839 89.6104 75.3498 89.6104Z" fill="#070707"/>
<path d="M125.407 91.5847V90.0277H121.988V104.448H125.454V98.7992C125.454 95.3232 125.781 92.8248 130.591 93.1507V89.8558C128.349 89.6928 126.603 90.1454 125.407 91.5847Z" fill="#070707"/>
<path d="M101.347 90.0283L98.8341 100.112L96.1533 90.0283H91.7446L89.0544 100.112L86.5512 90.0283H83.0391L86.8875 104.457H91.0534L93.9489 94.2104L96.8165 104.457H100.982L105.055 90.0283H101.347Z" fill="#070707"/>
<path d="M112.687 101.912C110.221 101.912 108.372 100.029 108.372 97.2684C108.372 94.5075 110.23 92.6337 112.687 92.6337C115.116 92.6337 117.002 94.5166 117.002 97.2684C117.002 100.02 115.116 101.912 112.687 101.912ZM112.687 89.6104C108.325 89.6104 104.906 92.8872 104.906 97.2684C104.906 101.65 108.325 104.899 112.687 104.899C117.021 104.899 120.468 101.65 120.468 97.2684C120.468 92.8872 117.03 89.6104 112.687 89.6104Z" fill="#070707"/>
<path d="M135.561 97.359H136.364L141.202 104.456H145.116L139.549 96.5895C142.249 95.5666 144.061 92.8963 144.061 90.0268H140.605C140.605 93.1407 138.073 94.3175 135.561 94.3175V84.333H132.086V104.456H135.551L135.561 97.359Z" fill="#070707"/>
</g>
<defs>
<clipPath id="clip0_482_22239">
<rect width="96" height="40" fill="white" transform="translate(49 76)"/>
</clipPath>
</defs>
</svg>
