<svg width="193" height="193" viewBox="0 0 193 193" fill="none" xmlns="http://www.w3.org/2000/svg">
<rect width="193" height="193" rx="96.5" fill="#ECECEC"/>
<g clip-path="url(#clip0_482_22249)">
<path d="M55.2454 88.4935C59.2384 88.4935 62.4908 91.7347 62.4908 95.7461C62.4908 99.7575 59.2384 102.999 55.2454 102.999C51.2524 102.999 48 99.7896 48 95.7461C48 91.7026 51.2524 88.4935 55.2454 88.4935ZM112.049 88.333V101.041C112.049 102.004 112.436 102.261 113.177 102.453L113.209 102.614H109.119V101.041C108.636 102.196 107.638 102.902 106.35 102.902C104.16 102.902 102.711 100.913 102.711 97.9604C102.711 96.2916 103.194 94.8796 104.096 93.8206C104.965 92.7937 106.157 92.2481 107.477 92.2481C108.121 92.2481 108.668 92.3765 109.119 92.6653V90.9324C109.119 90.5473 109.022 90.2906 108.829 90.098C108.572 89.8734 108.153 89.7771 107.509 89.8413H107.477V89.6808L112.049 88.333ZM127.571 92.2802V101.041C127.571 102.004 127.957 102.261 128.698 102.453V102.614H124.608V101.009C124.125 102.164 123.062 102.902 121.871 102.902C120.454 102.902 119.552 102.261 119.198 101.009L119.134 100.688C119.069 100.367 119.037 100.046 119.037 99.7254V95.0401C119.037 94.0131 118.812 93.6922 117.91 93.6281H117.878V93.4676L121.968 92.2802V99.6612C121.968 100.752 122.451 101.362 123.352 101.362C123.9 101.362 124.351 101.073 124.608 100.592V95.0401C124.608 93.9811 124.415 93.6601 123.674 93.596H123.642V93.4355L127.571 92.2802ZM98.0416 92.2481C99.1365 92.2481 100.199 92.6332 100.908 93.3071C101.713 94.0773 102.131 95.2005 102.163 96.6767V96.7088H96.0129C95.8841 98.8268 97.2044 100.56 98.9433 100.624C100.199 100.72 101.294 99.95 101.906 98.6985L102.067 98.7626C101.713 101.105 100.328 102.87 97.9128 102.87C95.1757 102.87 93.63 100.592 93.5656 97.7357V96.9976C93.6944 95.7461 94.0808 94.6229 94.7571 93.7885C95.1757 93.275 95.6587 92.89 96.2383 92.6332C96.7214 92.3765 97.4298 92.2481 98.0094 92.2481H98.0416ZM140.645 92.2802C142.384 92.2802 143.446 93.3713 143.446 95.2326V101.202C143.446 101.908 143.768 102.261 144.573 102.453H144.605V102.614H140.484V95.3289C140.484 94.1736 140.065 93.596 139.196 93.596C138.487 93.596 138.133 94.1094 137.94 94.5587C137.972 94.7833 138.004 95.008 138.004 95.2326V101.298C138.004 102.036 138.23 102.293 138.874 102.453H138.906V102.614H135.074V95.3289C135.074 94.1736 134.623 93.596 133.786 93.596C133.109 93.596 132.755 94.0773 132.594 94.4624V101.33C132.594 102.068 132.82 102.325 133.464 102.485H133.496V102.646H129.664V95.008C129.664 93.9811 129.406 93.6601 128.537 93.596H128.505V93.4355L132.594 92.3123V94.0131C133.013 92.922 133.979 92.2802 135.203 92.2802C136.587 92.2802 137.553 92.9541 137.875 94.1736C138.294 93.0183 139.357 92.2802 140.645 92.2802ZM81.9085 88.9748L85.7405 97.9283L89.5726 88.9748H93.6944L93.6622 89.1353L93.6154 89.1457C92.9053 89.307 92.5351 89.5716 92.5351 90.451V101.362C92.5995 102.068 92.986 102.293 93.6622 102.453H93.6944V102.614H88.4455V102.453H88.4777C89.1539 102.293 89.5404 102.068 89.6048 101.362V90.7398L84.5491 102.581H84.2593L79.3324 91.0608V101.105C79.3324 102.004 79.7188 102.261 80.4594 102.421H80.4916V102.581H77.4647V102.421H77.4969C78.2375 102.261 78.6239 102.004 78.6239 101.105V90.451C78.6239 89.5525 78.2375 89.2957 77.4969 89.1353H77.4647V88.9748H81.9085ZM117.041 92.2802V101.041L117.041 101.1C117.057 102.015 117.443 102.265 118.168 102.453L118.2 102.614H114.11V95.0401C114.11 94.0131 113.885 93.6922 112.983 93.6281H112.951V93.4676L117.041 92.2802ZM66.8381 88.9106C68.8024 88.9106 70.4447 91.9914 70.4447 95.7461C70.4447 99.5328 68.8346 102.581 66.8381 102.581C64.8416 102.581 63.2315 99.5328 63.2315 95.7461C63.2315 91.9593 64.8416 88.9106 66.8381 88.9106ZM72.3768 89.6167C73.1174 89.6167 73.6649 92.3765 73.6649 95.7461C73.6649 99.1156 73.0852 101.875 72.3768 101.875C71.6754 101.875 71.1003 99.1706 71.0889 95.847L71.0887 95.7461C71.0887 92.3765 71.6683 89.6167 72.3768 89.6167ZM107.96 92.8258C106.672 92.8258 105.867 94.5266 105.867 97.1581C105.867 98.4096 106.092 99.5007 106.479 100.239C106.833 100.945 107.348 101.33 107.928 101.33C108.507 101.33 108.926 101.073 109.119 100.592V93.5318C108.894 93.0825 108.475 92.8258 107.96 92.8258ZM98.0094 92.8579C96.8502 92.8579 96.1739 94.2378 96.0773 96.1633V96.1953H99.5873C99.6517 94.6871 99.3941 93.6922 98.9111 93.2109C98.6535 92.9862 98.3637 92.8579 98.0094 92.8579ZM115.463 88.4293C116.397 88.4293 117.105 89.1353 117.105 90.0659C117.105 90.9966 116.397 91.7026 115.463 91.7026C114.529 91.7026 113.821 90.9966 113.821 90.0659C113.821 89.1353 114.529 88.4293 115.463 88.4293Z" fill="#070707"/>
</g>
<defs>
<clipPath id="clip0_482_22249">
<rect width="97" height="32" fill="white" transform="translate(48 80)"/>
</clipPath>
</defs>
</svg>
