<?xml version="1.0" encoding="utf-8"?><svg xmlns="http://www.w3.org/2000/svg" xmlns:xlink="http://www.w3.org/1999/xlink"><symbol viewBox="0 0 24 24" id="alert" xmlns="http://www.w3.org/2000/svg"><path d="M11.898 21.759c5.523 0 10-4.477 10-10s-4.477-10-10-10c-5.522 0-10 4.477-10 10s4.478 10 10 10ZM11.898 7.759v4M11.898 15.759h.01"/></symbol><symbol viewBox="0 0 24 24" id="arrow-up-right" xmlns="http://www.w3.org/2000/svg"><path d="M7 17 17 7M7 7h10v10"/></symbol><symbol viewBox="0 0 24 24" id="check" xmlns="http://www.w3.org/2000/svg"><path d="M20 6 9 17l-5-5"/></symbol><symbol viewBox="0 0 24 24" id="chevron-down" xmlns="http://www.w3.org/2000/svg"><path d="m6 9 6 6 6-6"/></symbol><symbol viewBox="0 0 24 24" id="chevrons" xmlns="http://www.w3.org/2000/svg"><path d="m13 17 5-5-5-5M6 17l5-5-5-5"/></symbol><symbol viewBox="0 0 24 24" id="cross" xmlns="http://www.w3.org/2000/svg"><path d="M18 6 6 18M6 6l12 12"/></symbol><symbol viewBox="0 0 24 24" id="heart" xmlns="http://www.w3.org/2000/svg"><path d="M20.838 4.61a5.5 5.5 0 0 0-7.78 0l-.353.353a1 1 0 0 1-1.414 0l-.353-.353a5.501 5.501 0 0 0-7.78 7.78l1.06 1.06 7.073 7.073a1 1 0 0 0 1.414 0l7.073-7.073 1.06-1.06a5.5 5.5 0 0 0 0-7.78Z"/></symbol><symbol viewBox="0 0 24 24" id="menu" xmlns="http://www.w3.org/2000/svg"><path d="M3 12h18M3 6h18M3 18h18"/></symbol><symbol viewBox="0 0 24 24" id="search" xmlns="http://www.w3.org/2000/svg"><path d="M11 19a8 8 0 1 0 0-16 8 8 0 0 0 0 16ZM20.998 21l-4.35-4.35"/></symbol><symbol viewBox="0 0 24 24" id="sizing" xmlns="http://www.w3.org/2000/svg"><path d="M20.314 9 9 20.314M20.317 16.072l-4.243 4.242"/></symbol><symbol viewBox="0 0 24 24" id="star" xmlns="http://www.w3.org/2000/svg"><path d="M11.103 3.817a1 1 0 0 1 1.794 0l1.96 3.972a1 1 0 0 0 .753.547l4.386.641a1 1 0 0 1 .553 1.706l-3.172 3.09a1 1 0 0 0-.288.885l.748 4.365a1 1 0 0 1-1.45 1.054l-3.921-2.062a1 1 0 0 0-.931 0l-3.921 2.062a1 1 0 0 1-1.451-1.054l.748-4.365a1 1 0 0 0-.288-.885l-3.172-3.09a1 1 0 0 1 .553-1.706l4.386-.641a1 1 0 0 0 .752-.547l1.961-3.972Z"/></symbol><symbol viewBox="0 0 24 24" id="upload" xmlns="http://www.w3.org/2000/svg"><path d="M21 15v4a2 2 0 0 1-2 2H5a2 2 0 0 1-2-2v-4M17 8l-5-5-5 5M12 3v12"/></symbol></svg>