<svg width="87" height="13" viewBox="0 0 87 13" xmlns="http://www.w3.org/2000/svg"><path d="M9.74467 0.863193V12.4996H7.61967L2.55717 5.17569H2.47195V12.4996H0.0117188V0.863193H2.17081L7.19354 8.18137H7.29581V0.863193H9.74467Z"/><path d="M11.7773 12.4996V0.863193H19.6183V2.8916H14.2376V5.66433H19.2148V7.69274H14.2376V10.4711H19.641V12.4996H11.7773Z"/><path d="M24.1935 12.4996L20.864 0.863193H23.5515L25.4776 8.94842H25.5742L27.6992 0.863193H30.0004L32.1197 8.96547H32.2219L34.1481 0.863193H36.8356L33.506 12.4996H31.1083L28.8924 4.8916H28.8015L26.5913 12.4996H24.1935Z"/><path d="M44.3555 4.20978C44.31 3.75145 44.1149 3.39539 43.7702 3.1416C43.4255 2.88781 42.9577 2.76092 42.3668 2.76092C41.9653 2.76092 41.6263 2.81774 41.3498 2.93137C41.0733 3.04122 40.8612 3.19463 40.7134 3.3916C40.5695 3.58857 40.4975 3.81206 40.4975 4.06206C40.4899 4.27039 40.5335 4.45221 40.6282 4.60751C40.7267 4.76281 40.8611 4.89728 41.0316 5.01092C41.2021 5.12077 41.399 5.21736 41.6225 5.30069C41.846 5.38024 42.0846 5.44842 42.3384 5.50524L43.3839 5.75524C43.8915 5.86888 44.3574 6.02039 44.7816 6.20978C45.2058 6.39918 45.5733 6.63213 45.8839 6.90865C46.1945 7.18516 46.435 7.51092 46.6055 7.88592C46.7797 8.26092 46.8687 8.69084 46.8725 9.17569C46.8687 9.88781 46.6869 10.5052 46.3271 11.028C45.971 11.5469 45.4558 11.9503 44.7816 12.2382C44.1111 12.5223 43.3024 12.6643 42.3555 12.6643C41.4161 12.6643 40.5979 12.5204 39.9009 12.2325C39.2077 11.9446 38.6661 11.5185 38.2759 10.9541C37.8896 10.3859 37.6869 9.68327 37.668 8.84615H40.0486C40.0752 9.2363 40.1869 9.56206 40.3839 9.82342C40.5846 10.081 40.8517 10.2761 41.185 10.4086C41.5221 10.5374 41.9028 10.6018 42.3271 10.6018C42.7437 10.6018 43.1055 10.5412 43.4123 10.42C43.7229 10.2988 43.9634 10.1302 44.1339 9.91433C44.3043 9.69842 44.3896 9.45031 44.3896 9.17001C44.3896 8.90865 44.3119 8.68895 44.1566 8.51092C44.0051 8.33289 43.7816 8.18137 43.4861 8.05637C43.1945 7.93137 42.8365 7.81774 42.4123 7.71547L41.1452 7.39728C40.1642 7.15865 39.3896 6.78554 38.8214 6.27797C38.2532 5.77039 37.971 5.08668 37.9748 4.22683C37.971 3.52228 38.1585 2.90675 38.5373 2.38024C38.9199 1.85372 39.4445 1.44274 40.1111 1.14728C40.7778 0.851829 41.5354 0.704102 42.3839 0.704102C43.2475 0.704102 44.0013 0.851829 44.6452 1.14728C45.293 1.44274 45.7968 1.85372 46.1566 2.38024C46.5165 2.90675 46.7021 3.5166 46.7134 4.20978H44.3555Z"/><path d="M48.0842 2.8916V0.863193H57.641V2.8916H54.0785V12.4996H51.6467V2.8916H48.0842Z"/><path d="M59.7986 12.4996H57.1623L61.1793 0.863193H64.3498L68.3612 12.4996H65.7248L62.81 3.52228H62.7191L59.7986 12.4996ZM59.6339 7.92569H65.8612V9.84615H59.6339V7.92569Z"/><path d="M69.7617 12.4996V0.863193H77.4663V2.8916H72.2219V5.66433H76.9549V7.69274H72.2219V12.4996H69.7617Z"/><path d="M79.1211 12.4996V0.863193H86.8256V2.8916H81.5813V5.66433H86.3143V7.69274H81.5813V12.4996H79.1211Z"/></svg>