<svg width="136" height="136" viewBox="0 0 136 136" fill="none" xmlns="http://www.w3.org/2000/svg">
<rect width="136" height="136" rx="68" fill="#ECECEC"/>
<g clip-path="url(#clip0_716_39018)">
<path d="M41.3468 58.1347H33.8254V76.6321L41.3468 58.1347Z" fill="#070707"/>
<path d="M46.6367 58.1347H54.1482V76.6321L46.6367 58.1347Z" fill="#070707"/>
<path d="M43.9949 64.9522L48.782 76.6321H45.6412L44.2104 72.9135H40.707L43.9949 64.9522Z" fill="#070707"/>
<path d="M66.4212 69.8979L67.308 72.513C67.3374 72.5785 67.3815 72.6088 67.4599 72.6088H69.1651C69.2582 72.6088 69.2729 72.5634 69.2582 72.4677L65.7352 62.4052C65.7205 62.3246 65.7058 62.3095 65.6274 62.3095H63.5106C63.4518 62.3095 63.4175 62.3548 63.4175 62.4203C63.3881 62.9494 63.344 63.1106 63.2803 63.2668L60.1395 72.4526C60.1248 72.5634 60.1591 72.6088 60.2473 72.6088H61.7712C61.8643 72.6088 61.9084 72.5785 61.9427 72.4828L62.7806 69.8979H66.4212ZM63.2656 68.1897C63.7262 66.7587 64.3338 64.9246 64.5788 63.8765H64.5935C64.8973 64.975 65.6127 67.1517 65.9361 68.1897H63.2656Z" fill="#070707"/>
<path d="M73.7887 72.765C74.705 72.765 75.6801 72.5936 76.6699 72.1553C76.7483 72.125 76.763 72.0898 76.763 72.0142C76.7336 71.732 76.6993 71.3239 76.6993 71.0115V61.5385C76.6993 61.4781 76.6993 61.4478 76.6258 61.4478H74.9647C74.901 61.4478 74.8716 61.4781 74.8716 61.5587V64.7684C74.6119 64.7382 74.4306 64.723 74.215 64.723C71.5348 64.723 69.8884 66.542 69.8884 68.8145C69.8884 71.4498 71.5789 72.765 73.7887 72.765ZM74.8716 71.0115C74.5972 71.1021 74.2934 71.1374 73.9847 71.1374C72.7696 71.1374 71.7749 70.432 71.7749 68.7188C71.7749 67.2021 72.799 66.3052 74.1562 66.3052C74.4306 66.3052 74.6707 66.3355 74.8716 66.4161V71.0115Z" fill="#070707"/>
<path d="M82.0588 64.723C79.7706 64.723 78.3545 66.5269 78.3545 68.7541C78.3545 70.7444 79.4815 72.765 82.0245 72.765C84.1755 72.765 85.6847 71.1374 85.6847 68.7037C85.6847 66.5572 84.4058 64.723 82.0588 64.723ZM81.9657 66.3052C83.2593 66.3052 83.8081 67.449 83.8081 68.7541C83.8081 70.3665 82.9996 71.1677 82.0588 71.1677C80.8975 71.1677 80.2115 70.1649 80.2115 68.7188C80.2115 67.2324 80.9416 66.3052 81.9657 66.3052Z" fill="#070707"/>
<path d="M87.4042 61.4478C87.3405 61.4478 87.2964 61.4781 87.2964 61.5587V72.2812C87.2964 72.3266 87.3405 72.4072 87.4042 72.4223C88.1343 72.6541 88.8986 72.765 89.6875 72.765C91.9464 72.765 94.1415 71.3239 94.1415 68.4215C94.1415 66.3203 92.7401 64.723 90.545 64.723C90.0403 64.723 89.5699 64.8037 89.1583 64.9447L89.1387 61.5738C89.1387 61.4629 89.1093 61.4478 89.0015 61.4478H87.4042ZM92.2649 68.613C92.2649 70.3514 91.1085 71.1677 89.859 71.1677C89.5993 71.1677 89.369 71.1525 89.1583 71.087V66.5118C89.3984 66.4161 89.6875 66.3355 90.2216 66.3355C91.427 66.3355 92.2649 67.1215 92.2649 68.613Z" fill="#070707"/>
<path d="M100.339 69.1773C101.084 69.1773 101.696 69.1622 101.907 69.1118C101.985 69.0967 102.015 69.0665 102.029 69.001C102.074 68.8297 102.093 68.4719 102.093 68.0335C102.093 66.542 101.221 64.723 98.9671 64.723C96.6641 64.723 95.3853 66.6529 95.3853 68.8297C95.3853 70.7595 96.375 72.765 99.1484 72.765C100.187 72.765 100.858 72.5936 101.437 72.3115C101.495 72.2812 101.525 72.2308 101.525 72.1401V70.8351C101.525 70.7595 101.481 70.7444 101.437 70.7746C100.858 71.0266 100.231 71.1525 99.5452 71.1525C97.992 71.1525 97.2864 70.2708 97.2423 69.1773H100.339ZM97.2423 67.8269C97.3648 67.061 97.8352 66.2296 98.8887 66.2296C100.05 66.2296 100.354 67.2324 100.354 67.6858C100.354 67.701 100.354 67.7665 100.354 67.8118C100.29 67.8269 100.094 67.8269 99.5158 67.8269H97.2423Z" fill="#070707"/>
</g>
<defs>
<clipPath id="clip0_716_39018">
<rect width="68.3523" height="25.3679" fill="white" transform="translate(33.8254 54.9637)"/>
</clipPath>
</defs>
</svg>
