<svg width="136" height="136" viewBox="0 0 136 136" fill="none" xmlns="http://www.w3.org/2000/svg">
<rect width="136" height="136" rx="68" fill="#ECECEC"/>
<g clip-path="url(#clip0_716_39037)">
<path fill-rule="evenodd" clip-rule="evenodd" d="M75.6469 75.3499C72.0596 77.9666 66.86 79.3626 62.3832 79.3626C56.106 79.3626 50.455 77.0651 46.1797 73.2439C45.8438 72.9434 46.1448 72.5339 46.5478 72.7679C51.1617 75.4244 56.8665 77.0226 62.7594 77.0226C66.7337 77.0226 71.1057 76.2089 75.1256 74.5203C75.7329 74.265 76.2408 74.9138 75.6469 75.3499Z" fill="#C1C1C1"/>
<path fill-rule="evenodd" clip-rule="evenodd" d="M77.1383 73.6614C76.6815 73.0817 74.1073 73.3875 72.9518 73.5231C72.5998 73.5657 72.546 73.2625 72.8631 73.0445C74.9134 71.6165 78.2777 72.0287 78.67 72.5073C79.0623 72.9886 78.5679 76.3259 76.6412 77.9187C76.3456 78.1633 76.0635 78.0331 76.1952 77.7086C76.6278 76.6397 77.5978 74.2438 77.1383 73.6614Z" fill="#C1C1C1"/>
<path fill-rule="evenodd" clip-rule="evenodd" d="M73.0313 62.9637V61.5756C73.0313 61.3655 73.1925 61.2246 73.386 61.2246H79.6658C79.8674 61.2246 80.0286 61.3682 80.0286 61.5756V62.7643C80.0259 62.9637 79.8566 63.2243 79.5556 63.6365L76.3015 68.2341C77.5107 68.2049 78.7871 68.383 79.8835 68.9946C80.1307 69.1329 80.1979 69.335 80.2167 69.5345V71.0156C80.2167 71.2177 79.991 71.4544 79.7545 71.332C77.8224 70.3295 75.2562 70.2205 73.1199 71.3427C72.9023 71.4597 72.6739 71.2257 72.6739 71.0236V69.6169C72.6739 69.3909 72.6766 69.0053 72.905 68.6623L76.675 63.312H73.394C73.1925 63.312 73.0313 63.1711 73.0313 62.9637Z" fill="#070707"/>
<path fill-rule="evenodd" clip-rule="evenodd" d="M50.1233 71.6246H48.2128C48.0301 71.6113 47.8849 71.4757 47.8715 71.3028V61.5996C47.8715 61.4054 48.0354 61.2512 48.2397 61.2512H50.0212C50.2066 61.2592 50.3544 61.4001 50.3679 61.5756V62.844H50.4028C50.8677 61.6182 51.741 61.0465 52.918 61.0465C54.1137 61.0465 54.8608 61.6182 55.3982 62.844C55.8604 61.6182 56.9111 61.0465 58.037 61.0465C58.8377 61.0465 59.7138 61.3735 60.2485 62.1075C60.8531 62.9238 60.7295 64.1098 60.7295 65.1495L60.7268 71.2736C60.7268 71.4677 60.5629 71.6246 60.3587 71.6246H58.4508C58.26 71.6113 58.1068 71.4597 58.1068 71.2736V66.1308C58.1068 65.7212 58.1445 64.7001 58.0531 64.3119C57.9107 63.6604 57.4834 63.4769 56.9299 63.4769C56.4677 63.4769 55.984 63.7827 55.7878 64.272C55.5917 64.7613 55.6105 65.5803 55.6105 66.1308V71.2736C55.6105 71.4677 55.4466 71.6246 55.2423 71.6246H53.3345C53.141 71.6113 52.9905 71.4597 52.9905 71.2736L52.9878 66.1308C52.9878 65.0485 53.1679 63.4557 51.8109 63.4557C50.4377 63.4557 50.4915 65.0086 50.4915 66.1308V71.2736C50.4915 71.4677 50.3276 71.6246 50.1233 71.6246Z" fill="#070707"/>
<path fill-rule="evenodd" clip-rule="evenodd" d="M85.435 61.0465C88.27 61.0465 89.8043 63.4557 89.8043 66.519C89.8043 69.4786 88.1087 71.8267 85.435 71.8267C82.6512 71.8267 81.1356 69.4175 81.1356 66.4153C81.1356 63.3945 82.67 61.0465 85.435 61.0465ZM85.4512 63.0275C84.0431 63.0275 83.9544 64.9262 83.9544 66.1095C83.9544 67.2955 83.9356 69.827 85.435 69.827C86.9157 69.827 86.9855 67.7847 86.9855 66.5403C86.9855 65.7212 86.9506 64.7427 86.7007 63.9662C86.4857 63.2908 86.0585 63.0275 85.4512 63.0275Z" fill="#070707"/>
<path fill-rule="evenodd" clip-rule="evenodd" d="M93.4804 71.6246H91.5779C91.3871 71.6113 91.234 71.4597 91.234 71.2736L91.2313 61.5677C91.2474 61.3895 91.406 61.2512 91.5994 61.2512H93.3703C93.5369 61.2592 93.6739 61.3709 93.7115 61.5224V63.0063H93.7464C94.2812 61.6793 95.0309 61.0465 96.3503 61.0465C97.2075 61.0465 98.0432 61.3523 98.5806 62.1899C99.0804 62.9664 99.0804 64.272 99.0804 65.2107V71.3188C99.0589 71.4889 98.9004 71.6246 98.7123 71.6246H96.7964C96.6217 71.6113 96.4766 71.4836 96.4578 71.3188V66.0483C96.4578 64.9873 96.5814 63.4344 95.262 63.4344C94.7971 63.4344 94.3699 63.7428 94.1576 64.2108C93.8889 64.8038 93.8539 65.3942 93.8539 66.0483V71.2736C93.8512 71.4677 93.6846 71.6246 93.4804 71.6246Z" fill="#070707"/>
<path fill-rule="evenodd" clip-rule="evenodd" d="M68.0251 66.9896C68.0251 67.7262 68.0439 68.3405 67.6677 68.9946C67.3641 69.5265 66.8804 69.8536 66.3457 69.8536C65.6121 69.8536 65.1821 69.3004 65.1821 68.4841C65.1821 66.8726 66.6412 66.5801 68.0251 66.5801V66.9896ZM69.9518 71.598C69.8255 71.7096 69.6428 71.7176 69.5004 71.6432C68.8662 71.122 68.7507 70.88 68.404 70.3827C67.356 71.4411 66.6117 71.7575 65.2547 71.7575C63.6451 71.7575 62.3956 70.7763 62.3956 68.8112C62.3956 67.2768 63.2339 66.2318 64.4324 65.7212C65.4696 65.2692 66.918 65.1894 68.0251 65.0644V64.8198C68.0251 64.3704 68.0601 63.8385 67.7913 63.4503C67.5602 63.102 67.1142 62.9584 66.7192 62.9584C65.991 62.9584 65.3434 63.328 65.1848 64.0938C65.1526 64.264 65.0263 64.4315 64.8516 64.4395L63.0002 64.2427C62.8443 64.2082 62.6696 64.0832 62.7153 63.8465C63.1399 61.6235 65.1714 60.9534 66.9879 60.9534C67.9176 60.9534 69.1322 61.198 69.8658 61.8947C70.7956 62.7536 70.7069 63.8997 70.7069 65.1469V68.0932C70.7069 68.9787 71.0777 69.3669 71.427 69.8456C71.548 70.0158 71.5748 70.2205 71.419 70.3482C71.0293 70.6699 70.3361 71.2682 69.9545 71.6033L69.9518 71.598Z" fill="#070707"/>
<path fill-rule="evenodd" clip-rule="evenodd" d="M42.9782 66.9896C42.9782 67.7262 42.997 68.3405 42.6208 68.9946C42.3172 69.5265 41.8362 69.8535 41.2987 69.8535C40.5651 69.8535 40.1379 69.3004 40.1379 68.4841C40.1379 66.8726 41.597 66.5801 42.9782 66.5801V66.9896ZM44.9049 71.598C44.7786 71.7096 44.5959 71.7176 44.4534 71.6432C43.8193 71.122 43.7064 70.88 43.3571 70.3827C42.3091 71.4411 41.5674 71.7575 40.2078 71.7575C38.6008 71.7575 37.3486 70.7763 37.3486 68.8112C37.3486 67.2768 38.1897 66.2318 39.3855 65.7212C40.4227 65.2692 41.8711 65.1894 42.9782 65.0644V64.8198C42.9782 64.3704 43.0131 63.8385 42.7471 63.4503C42.5133 63.102 42.0673 62.9584 41.6749 62.9584C40.9467 62.9584 40.2964 63.328 40.1379 64.0938C40.1056 64.264 39.9793 64.4315 39.8074 64.4395L37.9532 64.2427C37.7974 64.2082 37.6254 64.0832 37.6684 63.8465C38.0957 61.6235 40.1244 60.9534 41.941 60.9534C42.8707 60.9534 44.0853 61.198 44.8189 61.8947C45.7486 62.7536 45.66 63.8997 45.66 65.1469V68.0932C45.66 68.9787 46.0308 69.3669 46.3801 69.8456C46.5037 70.0158 46.5306 70.2205 46.3747 70.3481C45.9851 70.6699 45.2918 71.2682 44.9102 71.6033L44.9049 71.598Z" fill="#070707"/>
</g>
<defs>
<clipPath id="clip0_716_39037">
<rect width="62.0104" height="26.7772" fill="white" transform="translate(37.3486 54.2591)"/>
</clipPath>
</defs>
</svg>
