<svg width="96" height="96" viewBox="0 0 96 96" fill="none" xmlns="http://www.w3.org/2000/svg">
<rect width="96" height="96" rx="48" fill="#ECECEC"/>
<g clip-path="url(#clip0_716_39071)">
<path d="M37.4797 50.6876C36.1463 50.6876 35.2635 49.688 35.0173 49.3008C35.3332 46.8514 36.2578 46.0769 37.4797 46.0769C38.6877 46.0769 39.6262 47.0135 39.6262 48.3822C39.6262 49.751 38.6877 50.6876 37.4797 50.6876ZM37.4797 44.5731C35.3054 44.5731 34.0881 45.9464 33.7396 47.3602C33.3447 46.6397 33.052 45.6762 32.8243 44.7802H29.8183V48.4048C29.8183 49.7195 29.2004 50.6921 27.9924 50.6921C26.7844 50.6921 26.0921 49.7195 26.0921 48.4048L26.106 44.7802H24.373V48.4048C24.373 49.4629 24.7262 50.4219 25.372 51.1063C26.0364 51.8132 26.9423 52.1824 27.9924 52.1824C30.0831 52.1824 31.542 50.6291 31.542 48.4048V45.9689C31.7603 46.7703 32.2807 48.3102 33.275 49.661L32.3458 54.7895H34.1067L34.7199 51.1558C34.9197 51.3179 35.1334 51.462 35.3611 51.5926C35.9511 51.9528 36.6248 52.1554 37.3217 52.1779C37.3217 52.1779 37.4286 52.1824 37.4844 52.1824C39.6402 52.1824 41.3545 50.566 41.3545 48.3822C41.3545 46.1985 39.6355 44.5731 37.4797 44.5731Z" fill="#070707"/>
<path d="M62.3767 45.555V44.7805H60.6763V51.9531H62.4V49.1435C62.4 47.4145 62.5626 46.1718 64.9553 46.3339V44.695C63.8402 44.6139 62.9714 44.8391 62.3767 45.555Z" fill="#070707"/>
<path d="M50.4108 44.7807L49.161 49.7966L47.8276 44.7807H45.6346L44.2965 49.7966L43.0514 44.7807H41.3044L43.2187 51.9579H45.2908L46.7311 46.8609L48.1575 51.9579H50.2296L52.2553 44.7807H50.4108Z" fill="#070707"/>
<path d="M56.0516 50.6921C54.825 50.6921 53.9051 49.7556 53.9051 48.3822C53.9051 47.009 54.8297 46.0769 56.0516 46.0769C57.2596 46.0769 58.1981 47.0135 58.1981 48.3822C58.1981 49.751 57.2596 50.6921 56.0516 50.6921ZM56.0516 44.5731C53.8818 44.5731 52.1814 46.203 52.1814 48.3822C52.1814 50.5615 53.8818 52.1779 56.0516 52.1779C58.2074 52.1779 59.9218 50.5615 59.9218 48.3822C59.9218 46.203 58.212 44.5731 56.0516 44.5731Z" fill="#070707"/>
<path d="M67.429 48.4274H67.8286L70.2353 51.9574H72.182L69.4129 48.0447C70.7557 47.5359 71.657 46.2076 71.657 44.7803H69.9379C69.9379 46.3292 68.6788 46.9145 67.429 46.9145V41.9482H65.7007V51.9574H67.4244L67.429 48.4274Z" fill="#070707"/>
</g>
<defs>
<clipPath id="clip0_716_39071">
<rect width="47.7513" height="19.8964" fill="white" transform="translate(24.373 37.8031)"/>
</clipPath>
</defs>
</svg>
