<svg width="193" height="193" viewBox="0 0 193 193" fill="none" xmlns="http://www.w3.org/2000/svg">
<rect width="193" height="193" rx="96.5" fill="#ECECEC"/>
<path d="M106.353 89.6252C104.264 89.6252 102.223 91.569 101.988 94.3776V89.8568H98.9885V103.488H102.024V96.8901C102.024 95.0418 103.299 92.4345 106.353 92.4345V89.6252Z" fill="#070707"/>
<path d="M138.199 101.306V91.9668H139.957C142.302 91.9668 144.208 93.4731 144.208 96.5611C144.208 99.6491 142.302 101.306 139.957 101.306H138.199ZM135.194 103.49H140.324C143.475 103.49 147.359 101.381 147.359 96.5611C147.359 91.8162 143.475 89.8579 140.324 89.8579H135.194V103.49Z" fill="#070707"/>
<path d="M123.698 96.7119C123.698 94.2265 124.944 92.1929 126.995 92.1929C128.974 92.1929 130.073 94.2265 130.073 96.7119C130.073 99.1974 128.974 101.231 126.995 101.231C124.944 101.231 123.698 99.1974 123.698 96.7119ZM120.62 96.8625C120.62 100.93 122.672 103.792 125.896 103.792C128.241 103.792 129.633 102.21 130.366 99.6492V103.49H133.37V89.8581H130.366V93.4733C129.707 91.0632 128.315 89.6322 126.116 89.6322C122.818 89.6322 120.62 92.7201 120.62 96.8625Z" fill="#070707"/>
<path d="M52.2016 103.792C48.4643 103.792 46.2659 100.704 46.2659 96.8625C46.2659 92.8708 48.6841 89.6322 53.3008 89.6322C58.0641 89.6322 59.6763 92.9461 59.7495 94.829H56.3054C56.2321 93.7746 55.3527 92.1929 53.2275 92.1929C50.9558 92.1929 49.4902 94.2265 49.4902 96.7119C49.4902 99.1974 50.9558 101.231 53.2275 101.231C55.2794 101.231 56.1588 99.5739 56.5252 97.917H53.2275V96.5612H60.1471V103.49H57.1114V99.122C56.8916 100.704 55.9389 103.792 52.2016 103.792Z" fill="#070707"/>
<path d="M66.3021 103.791C63.4441 103.791 61.6854 101.833 61.6854 97.9168V89.8579H64.7632V97.9168C64.7632 99.9503 65.7158 100.929 67.328 100.929C70.4791 100.929 71.6516 96.9377 71.6516 94.151V89.8579H74.7294V103.49H71.7248V98.444C71.1386 101.231 69.5264 103.791 66.3021 103.791Z" fill="#070707"/>
<path d="M93.1214 89.625C90.4955 89.625 88.839 92.2321 88.2983 94.6426C88.2058 91.4122 86.6602 89.625 84.187 89.625C82.0503 89.625 80.068 91.5834 79.5532 94.6816V89.8569H76.5528V103.489H79.5916V98.6023C79.5916 97.3907 80.0831 92.4185 83.1421 92.4185C85.1238 92.4185 85.3304 94.2556 85.3304 96.7669V103.489H88.3678V98.6023C88.3678 97.3907 88.8796 92.4185 91.9386 92.4185C93.9187 92.4185 94.1232 94.2556 94.1232 96.7669V103.489H97.1647V95.4259C97.1785 91.5574 95.8496 89.625 93.1214 89.625Z" fill="#070707"/>
<path d="M112.872 89.625C108.938 89.625 106.273 92.7953 106.273 96.7083C106.273 101.02 108.808 103.792 112.872 103.792C116.806 103.792 119.519 100.621 119.519 96.7083C119.519 92.3967 116.935 89.625 112.872 89.625ZM112.872 101.379C110.582 101.379 109.099 99.3858 109.099 96.7083C109.099 94.0308 110.587 92.038 112.872 92.038C115.157 92.038 116.586 94.0308 116.586 96.7083C116.586 99.3858 115.155 101.379 112.872 101.379Z" fill="#070707"/>
</svg>
