<svg width="136" height="136" viewBox="0 0 136 136" fill="none" xmlns="http://www.w3.org/2000/svg">
<rect width="136" height="136" rx="68" fill="#ECECEC"/>
<g clip-path="url(#clip0_716_39045)">
<path d="M92.3633 67.1793V72.4871H94.0843V68.9486H100.378V72.4871H102.099V67.1793H92.3633ZM93.8876 65.4584H100.526C101.46 65.2888 102.124 64.4647 102.32 63.6891H92.0928C92.2895 64.4647 92.9779 65.2645 93.8876 65.4584ZM87.1266 72.4871C87.9871 72.1236 88.4542 71.4934 88.6509 70.7663H80.9065V63.7134H79.1609V72.4871H87.1266ZM66.2536 65.4342H72.3999C73.3342 65.1676 74.0963 64.4647 74.293 63.7134H64.5572V68.9001H72.5229V70.7179H66.2782C65.2948 70.9845 64.4588 71.6389 64.0409 72.4871H74.2438V67.1793H66.2782L66.2536 65.4342ZM51.109 65.4584H57.747C58.6813 65.2888 59.3697 64.4647 59.5418 63.6891H49.2897C49.4863 64.4647 50.1747 65.2645 51.109 65.4584ZM51.109 68.9243H57.747C58.6813 68.7547 59.3697 67.9306 59.5418 67.155H49.2897C49.4863 67.9306 50.1747 68.7304 51.109 68.9243ZM51.109 72.4871H57.747C58.6813 72.3175 59.3697 71.4934 59.5418 70.7179H49.2897C49.4863 71.4934 50.1747 72.3175 51.109 72.4871Z" fill="#070707"/>
<path d="M33.8254 63.7134C34.0221 64.489 34.7105 65.2645 35.6202 65.4584H38.4229L38.5704 65.5069V72.4629H40.316V65.5069L40.4635 65.4584H43.2662C44.2005 65.2161 44.8643 64.489 45.061 63.7134V63.6891L33.8254 63.7134Z" fill="#070707"/>
</g>
<defs>
<clipPath id="clip0_716_39045">
<rect width="68.3523" height="21.1399" fill="white" transform="translate(33.8254 57.0778)"/>
</clipPath>
</defs>
</svg>
