<svg width="193" height="193" viewBox="0 0 193 193" fill="none" xmlns="http://www.w3.org/2000/svg">
<rect width="193" height="193" rx="96.5" fill="#ECECEC"/>
<g clip-path="url(#clip0_716_39028)">
<path d="M99.6592 88.5375C99.6592 89.6186 98.7884 90.4895 97.7073 90.4895C96.6262 90.4895 95.7553 89.6186 95.7553 88.5375C95.7553 87.4565 96.5962 86.5856 97.7073 86.5856C98.8184 86.6156 99.6592 87.4865 99.6592 88.5375ZM91.6112 92.4715C91.6112 92.6517 91.6112 92.952 91.6112 92.952C91.6112 92.952 90.6803 91.7508 88.6983 91.7508C85.425 91.7508 82.8725 94.2432 82.8725 97.6967C82.8725 101.12 85.395 103.643 88.6983 103.643C90.7103 103.643 91.6112 102.411 91.6112 102.411V102.922C91.6112 103.162 91.7914 103.342 92.0316 103.342H94.4641V92.0511C94.4641 92.0511 92.2418 92.0511 92.0316 92.0511C91.7914 92.0511 91.6112 92.2613 91.6112 92.4715ZM91.6112 99.7087C91.1607 100.369 90.2598 100.94 89.1788 100.94C87.2568 100.94 85.7854 99.7387 85.7854 97.6967C85.7854 95.6547 87.2568 94.4535 89.1788 94.4535C90.2298 94.4535 91.1908 95.0541 91.6112 95.6847V99.7087ZM96.2659 92.0511H99.1487V103.342H96.2659V92.0511ZM139.329 91.7508C137.347 91.7508 136.416 92.952 136.416 92.952V86.6156H133.533V103.342C133.533 103.342 135.755 103.342 135.966 103.342C136.206 103.342 136.386 103.132 136.386 102.922V102.411C136.386 102.411 137.317 103.643 139.299 103.643C142.572 103.643 145.125 101.12 145.125 97.6967C145.125 94.2733 142.572 91.7508 139.329 91.7508ZM138.848 100.91C137.737 100.91 136.866 100.339 136.416 99.6787V95.6547C136.866 95.0541 137.827 94.4234 138.848 94.4234C140.77 94.4234 142.242 95.6246 142.242 97.6667C142.242 99.7087 140.77 100.91 138.848 100.91ZM132.032 96.6456V103.372H129.149V96.976C129.149 95.1141 128.548 94.3634 126.927 94.3634C126.056 94.3634 125.155 94.8138 124.584 95.4745V103.342H121.701V92.0511H123.984C124.224 92.0511 124.404 92.2613 124.404 92.4715V92.952C125.245 92.0811 126.356 91.7508 127.467 91.7508C128.728 91.7508 129.779 92.1111 130.62 92.8318C131.641 93.6727 132.032 94.7538 132.032 96.6456ZM114.704 91.7508C112.722 91.7508 111.791 92.952 111.791 92.952V86.6156H108.908V103.342C108.908 103.342 111.131 103.342 111.341 103.342C111.581 103.342 111.761 103.132 111.761 102.922V102.411C111.761 102.411 112.692 103.643 114.674 103.643C117.948 103.643 120.5 101.12 120.5 97.6967C120.53 94.2733 117.978 91.7508 114.704 91.7508ZM114.224 100.91C113.113 100.91 112.242 100.339 111.791 99.6787V95.6547C112.242 95.0541 113.203 94.4234 114.224 94.4234C116.146 94.4234 117.617 95.6246 117.617 97.6667C117.617 99.7087 116.146 100.91 114.224 100.91ZM106.416 91.7508C107.287 91.7508 107.737 91.9009 107.737 91.9009V94.5736C107.737 94.5736 105.335 93.7628 103.833 95.4745V103.372H100.951V92.0511C100.951 92.0511 103.173 92.0511 103.383 92.0511C103.623 92.0511 103.803 92.2613 103.803 92.4715V92.952C104.344 92.3213 105.515 91.7508 106.416 91.7508ZM76.4761 102.321C76.3259 101.961 76.1758 101.571 76.0256 101.24C75.7854 100.7 75.5451 100.189 75.3349 99.7087L75.3049 99.6787C73.2328 95.1742 71.0106 90.6096 68.6683 86.1051L68.5782 85.9249C68.3379 85.4745 68.0977 84.994 67.8575 84.5135C67.5572 83.973 67.2569 83.4024 66.7764 82.8619C65.8154 81.6607 64.434 81 62.9626 81C61.4611 81 60.1097 81.6607 59.1187 82.8018C58.6683 83.3423 58.3379 83.9129 58.0376 84.4535C57.7974 84.9339 57.5572 85.4144 57.3169 85.8649L57.2268 86.045C54.9145 90.5495 52.6623 95.1141 50.5902 99.6186L50.5602 99.6787C50.3499 100.159 50.1097 100.67 49.8695 101.21C49.7193 101.541 49.5692 101.901 49.419 102.291C49.0286 103.402 48.9085 104.453 49.0587 105.535C49.389 107.787 50.8905 109.679 52.9626 110.52C53.7433 110.85 54.5542 111 55.395 111C55.6352 111 55.9355 110.97 56.1758 110.94C57.1668 110.82 58.1878 110.489 59.1788 109.919C60.41 109.228 61.5812 108.237 62.9025 106.796C64.2238 108.237 65.425 109.228 66.6262 109.919C67.6172 110.489 68.6382 110.82 69.6292 110.94C69.8695 110.97 70.1698 111 70.41 111C71.2508 111 72.0917 110.85 72.8424 110.52C74.9445 109.679 76.416 107.757 76.7463 105.535C76.9866 104.483 76.8665 103.432 76.4761 102.321ZM62.9325 103.883C61.3109 101.841 60.2599 99.9189 59.8995 98.2973C59.7493 97.6066 59.7193 97.006 59.8094 96.4655C59.8695 95.985 60.0496 95.5646 60.2899 95.2042C60.8605 94.3934 61.8214 93.8829 62.9325 93.8829C64.0436 93.8829 65.0346 94.3634 65.5752 95.2042C65.8154 95.5646 65.9956 95.985 66.0557 96.4655C66.1457 97.006 66.1157 97.6366 65.9656 98.2973C65.6052 99.8889 64.5541 101.811 62.9325 103.883ZM74.9145 105.294C74.7043 106.856 73.6532 108.207 72.1818 108.808C71.4611 109.108 70.6803 109.198 69.8995 109.108C69.1487 109.018 68.398 108.778 67.6172 108.327C66.5361 107.727 65.455 106.796 64.1938 105.414C66.1758 102.982 67.377 100.76 67.8274 98.7778C68.0376 97.8468 68.0677 97.006 67.9776 96.2252C67.8575 95.4745 67.5872 94.7838 67.1668 94.1832C66.2358 92.8318 64.6743 92.0511 62.9325 92.0511C61.1908 92.0511 59.6292 92.8619 58.6983 94.1832C58.2779 94.7838 58.0076 95.4745 57.8875 96.2252C57.7674 97.006 57.7974 97.8769 58.0376 98.7778C58.4881 100.76 59.7193 103.012 61.6713 105.444C60.44 106.826 59.3289 107.757 58.2478 108.357C57.4671 108.808 56.7163 109.048 55.9656 109.138C55.1548 109.228 54.374 109.108 53.6833 108.838C52.2118 108.237 51.1608 106.886 50.9505 105.324C50.8605 104.574 50.9205 103.823 51.2208 102.982C51.3109 102.682 51.4611 102.381 51.6112 102.021C51.8214 101.541 52.0617 101.03 52.3019 100.52L52.3319 100.459C54.404 95.985 56.6262 91.4204 58.9385 86.976L59.0286 86.7958C59.2689 86.3453 59.5091 85.8649 59.7493 85.4144C59.9896 84.9339 60.2599 84.4835 60.5902 84.0931C61.2208 83.3724 62.0617 82.982 62.9926 82.982C63.9235 82.982 64.7644 83.3724 65.395 84.0931C65.7253 84.4835 65.9956 84.9339 66.2358 85.4144C66.4761 85.8649 66.7163 86.3453 66.9566 86.7958L67.0466 86.976C69.3289 91.4504 71.5511 96.015 73.6232 100.489V100.52C73.8635 101 74.0737 101.541 74.3139 102.021C74.4641 102.381 74.6142 102.682 74.7043 102.982C74.9445 103.763 75.0346 104.514 74.9145 105.294Z" fill="#070707"/>
</g>
<defs>
<clipPath id="clip0_716_39028">
<rect width="96" height="36" fill="white" transform="translate(49 78)"/>
</clipPath>
</defs>
</svg>
