<svg width="96" height="96" viewBox="0 0 96 96" fill="none" xmlns="http://www.w3.org/2000/svg">
<rect width="96" height="96" rx="48" fill="#ECECEC"/>
<path fill-rule="evenodd" clip-rule="evenodd" d="M45.2578 43.7765C46.0031 43.6349 46.7483 43.4858 47.4861 43.3442C47.4786 46.6456 47.4786 49.9395 47.4861 53.2334C46.7483 53.0844 46.0031 52.9279 45.2653 52.7863C45.2429 52.4957 45.2578 52.205 45.2578 51.9144C45.2504 49.2092 45.2504 46.4966 45.2578 43.7765ZM63.285 45.2371C62.659 45.252 62.0181 45.4458 61.5337 45.8482C61.1313 46.1761 60.8406 46.6232 60.6767 47.1151C60.4978 47.6442 60.4606 48.218 60.5276 48.777C60.6022 49.4179 60.8555 50.0513 61.3027 50.5208C61.6529 50.8934 62.1299 51.1542 62.6292 51.266C63.2552 51.4076 63.9333 51.3853 64.5221 51.1095C64.9543 50.9158 65.312 50.573 65.5654 50.1705C65.8486 49.716 65.9902 49.1868 66.0349 48.6503C66.0871 48.0466 66.02 47.4281 65.7964 46.8617C65.6027 46.355 65.2524 45.9004 64.7829 45.6097C64.3358 45.334 63.8066 45.2148 63.285 45.2371ZM62.9571 43.1579C64.0377 43.0834 65.1704 43.2846 66.102 43.8584C66.6236 44.1789 67.0708 44.6037 67.421 45.103C67.7266 45.5501 67.9501 46.0494 68.1066 46.5711C68.2706 47.13 68.3302 47.7187 68.3377 48.3C68.3377 49.3657 68.0917 50.4537 67.503 51.3555C66.9888 52.1603 66.2063 52.7863 65.312 53.1142C64.7307 53.3303 64.1196 53.4347 63.5011 53.4496C62.3385 53.4719 61.1387 53.1887 60.1923 52.5031C59.3874 51.9293 58.7987 51.0872 58.5006 50.1482C58.2919 49.5222 58.21 48.8515 58.2174 48.1882C58.2249 47.0331 58.5602 45.8557 59.2831 44.9465C59.8718 44.1938 60.7139 43.6572 61.6306 43.3889C62.0554 43.2548 62.5025 43.1803 62.9571 43.1579ZM31.009 43.5976C31.5456 43.2846 32.1641 43.1356 32.7827 43.143C33.7664 43.1803 34.7128 43.687 35.2866 44.4919C35.5773 44.0969 35.9797 43.7914 36.4119 43.5752C37.3882 43.1057 38.5731 43.0312 39.5792 43.4411C40.0487 43.6349 40.4734 43.933 40.8013 44.3205C41.1367 44.7154 41.3603 45.1924 41.4944 45.6842C41.636 46.1985 41.6733 46.735 41.6584 47.2641C41.6584 49.2539 41.6584 51.2511 41.6584 53.2409C40.9206 53.0918 40.1754 52.9354 39.4301 52.7938C39.4227 50.886 39.4301 48.9782 39.4227 47.0704C39.4301 46.6307 39.2736 46.1836 38.9606 45.878C38.6253 45.5352 38.1334 45.3713 37.6565 45.3787C37.2317 45.3713 36.7995 45.4979 36.4641 45.7662C36.084 46.0643 35.8828 46.5562 35.8828 47.0406C35.8828 49.1049 35.8828 51.1766 35.8828 53.2409C35.1376 53.0918 34.3924 52.9354 33.6471 52.7938C33.6397 52.1827 33.6471 51.5641 33.6397 50.9456C33.6397 49.6638 33.6397 48.382 33.6397 47.0927C33.6546 46.653 33.5055 46.1985 33.1925 45.8855C32.9168 45.6023 32.5367 45.4383 32.1567 45.3936C31.7915 45.3563 31.4189 45.3862 31.0761 45.5277C30.7184 45.6768 30.4128 45.96 30.2489 46.3102C30.1371 46.5487 30.0849 46.8095 30.0849 47.0704C30.0849 48.6801 30.0849 50.2898 30.0849 51.8995C30.0924 52.3466 30.0775 52.7938 30.0924 53.2409C29.3471 53.0993 28.6094 52.9354 27.8716 52.8012C27.8567 52.5404 27.879 52.2721 27.8567 52.0187C27.8641 51.7206 27.8641 51.4225 27.8567 51.1244C27.879 50.8487 27.8567 50.5655 27.8641 50.2898C27.8641 49.4998 27.8641 48.7099 27.8641 47.9199C27.8567 47.4281 27.8716 46.9288 27.8567 46.4369C27.8641 46.1612 27.8641 45.878 27.8567 45.6023C27.8716 45.0508 27.8641 44.5068 27.8641 43.9553C27.8716 43.9031 27.8269 43.8212 27.8865 43.7914C28.6243 43.6498 29.3546 43.5082 30.0924 43.3666C30.0849 43.7019 30.0924 44.0373 30.0924 44.3726C30.3532 44.0596 30.6587 43.7914 31.009 43.5976ZM55.3185 43.2921C55.6762 43.2324 56.0413 43.1728 56.399 43.1132C56.399 43.8882 56.399 44.6633 56.399 45.4383C56.0413 45.5054 55.6836 45.5725 55.3259 45.6321C54.7893 45.7215 54.2304 45.878 53.828 46.2655C53.5001 46.5711 53.3436 47.0182 53.3138 47.4579C53.2914 47.7709 53.3063 48.0839 53.3063 48.4043C53.3063 50.014 53.3063 51.6237 53.3063 53.2334C52.6878 53.1068 52.0693 52.9801 51.4433 52.8608C51.324 52.8385 51.2122 52.8087 51.0855 52.7938C51.0557 52.6224 51.0781 52.451 51.0706 52.2795C51.0706 50.5655 51.0706 48.8589 51.0706 47.1449C51.0855 46.6083 51.175 46.0643 51.3985 45.565C51.6147 45.0657 51.9947 44.6409 52.4419 44.3279C53.0381 43.918 53.7311 43.6721 54.4316 43.4858C54.7297 43.4187 55.0129 43.3368 55.3185 43.2921ZM46.1521 39.0219C46.5098 38.9772 46.8973 39.0144 47.2029 39.2305C47.5531 39.4616 47.7469 39.8789 47.7544 40.2888C47.7767 40.408 47.7469 40.5347 47.7469 40.6539C47.7096 41.0266 47.5159 41.3843 47.1954 41.5929C46.8601 41.8165 46.4278 41.8538 46.0329 41.7718C45.705 41.7047 45.3994 41.496 45.2131 41.2054C44.997 40.8626 44.9597 40.4304 45.0417 40.0354C45.1162 39.6628 45.3696 39.32 45.7124 39.156C45.854 39.0889 46.0031 39.0442 46.1521 39.0219Z" fill="#070707"/>
</svg>
