<svg width="193" height="193" viewBox="0 0 193 193" fill="none" xmlns="http://www.w3.org/2000/svg">
<rect width="193" height="193" rx="96.5" fill="#ECECEC"/>
<path d="M77.5704 93.3628H68.867L76.4042 89.1419L74.9095 86.6297L67.3713 90.8506L71.7221 83.5402L69.1326 82.0901L64.7808 89.3987V80.9587H61.7896V89.3996L57.4378 82.0901L54.8474 83.5402L59.1981 90.8487L51.6619 86.6297L50.1662 89.1419L57.7035 93.3628H49V96.2639H57.7025L50.1662 100.485L51.6609 102.997L59.1991 98.7761L54.8474 106.086L57.4369 107.537L61.7896 100.227V108.667H64.7808V100.046L69.2125 107.49L71.6412 106.131L67.2085 98.6847L74.9076 102.996L76.4032 100.484L68.867 96.263H77.5695V93.3628H77.5704ZM63.2852 98.7567C62.7512 98.7568 62.2225 98.6548 61.7291 98.4566C61.2358 98.2584 60.7875 97.9679 60.4099 97.6016C60.0323 97.2354 59.7327 96.8006 59.5283 96.322C59.3239 95.8434 59.2187 95.3305 59.2186 94.8124C59.2185 94.2944 59.3237 93.7814 59.5279 93.3028C59.7322 92.8242 60.0317 92.3893 60.4092 92.0229C60.7867 91.6566 61.235 91.366 61.7283 91.1677C62.2216 90.9694 62.7503 90.8673 63.2843 90.8672C64.3627 90.8671 65.3969 91.2826 66.1596 92.0223C66.9222 92.762 67.3507 93.7653 67.3508 94.8115C67.351 95.8577 66.9227 96.8611 66.1602 97.601C65.3978 98.3409 64.3636 98.7566 63.2852 98.7567Z" fill="#777777"/>
<path d="M85.2812 104.948V84.678H89.116V104.948H85.2812ZM122.061 91.1728H125.723V92.8538C126.501 91.5099 128.319 90.7812 129.875 90.7812C131.808 90.7812 133.364 91.594 134.085 93.0764C135.209 91.3954 136.709 90.7812 138.584 90.7812C141.207 90.7812 143.715 92.3209 143.715 96.0162V104.948H139.996V96.7727C139.996 95.2884 139.246 94.1681 137.487 94.1681C135.843 94.1681 134.862 95.4011 134.862 96.8853V104.948H131.058V96.7727C131.058 95.2884 130.279 94.1681 128.548 94.1681C126.875 94.1681 125.895 95.3734 125.895 96.8853V104.948H122.061V91.1728ZM97.7824 105.347C93.462 105.347 90.3337 102.237 90.3337 98.0602C90.3337 93.9501 93.4525 90.7673 97.7824 90.7673C102.133 90.7673 105.231 93.9797 105.231 98.0602C105.231 102.207 102.101 105.347 97.7824 105.347ZM97.7824 94.1385C96.7107 94.14 95.6835 94.5538 94.926 95.2892C94.1685 96.0246 93.7427 97.0215 93.7419 98.0611C93.7427 99.1007 94.1685 100.098 94.926 100.833C95.6835 101.568 96.7107 101.982 97.7824 101.984C98.8538 101.982 99.8808 101.568 100.638 100.833C101.395 100.097 101.821 99.1006 101.822 98.0611C101.821 97.0216 101.395 96.0249 100.638 95.2895C99.8808 94.5542 98.8538 94.1402 97.7824 94.1385ZM113.421 105.347C109.101 105.347 105.973 102.237 105.973 98.0602C105.973 93.9501 109.092 90.7673 113.421 90.7673C117.772 90.7673 120.87 93.9797 120.87 98.0602C120.87 102.207 117.738 105.347 113.421 105.347ZM113.421 94.0914C112.337 94.0931 111.298 94.5118 110.532 95.2556C109.766 95.9994 109.335 97.0077 109.334 98.0592C109.335 99.1108 109.766 100.119 110.532 100.863C111.298 101.607 112.337 102.025 113.421 102.027C114.505 102.025 115.544 101.607 116.31 100.863C117.077 100.119 117.507 99.1108 117.508 98.0592C117.507 97.0077 117.077 95.9994 116.31 95.2556C115.544 94.5118 114.505 94.0931 113.421 94.0914Z" fill="#070707"/>
</svg>
