<svg width="136" height="136" viewBox="0 0 136 136" fill="none" xmlns="http://www.w3.org/2000/svg">
<rect width="136" height="136" rx="68" fill="#ECECEC"/>
<g clip-path="url(#clip0_716_39031)">
<path d="M33.8254 56.6667H48.5808V63.9398H41.2031L33.8254 56.6667ZM33.8254 63.9398H41.2031L48.5808 71.2129H33.8254V63.9398ZM33.8254 71.2129H41.2031V78.4859L33.8254 71.2129Z" fill="#070707"/>
<path d="M56.9062 62.4044H62.8706V64.2729H59.1637V66.8694H62.8706V68.6966H59.1637V72.0211H56.9062V62.4044ZM64.0969 65.3993H66.2291V66.7869C66.3405 66.31 66.5684 65.944 66.912 65.6878C67.2644 65.4219 67.6556 65.2894 68.0826 65.2894C68.3057 65.2894 68.4917 65.3081 68.6399 65.3444V67.2953C68.4272 67.27 68.2132 67.2564 67.9989 67.254C67.4136 67.254 66.9727 67.4414 66.675 67.8171C66.3783 68.1834 66.2291 68.7328 66.2291 69.4659V72.0211H64.0979V65.3993H64.0969ZM72.0058 72.1998C71.3557 72.1998 70.7887 72.0484 70.3056 71.7463C69.8317 71.4441 69.455 71.0152 69.2188 70.5098C68.968 69.979 68.8417 69.3784 68.8417 68.7102C68.8417 68.0507 68.9727 67.455 69.2326 66.9243C69.4763 66.4115 69.8631 65.9779 70.3475 65.6741C70.8393 65.372 71.4016 65.2206 72.0339 65.2206C72.5074 65.2206 72.9307 65.3217 73.302 65.523C73.6733 65.725 73.9521 65.9999 74.1381 66.3473V65.3993H76.2562V72.0211H74.1381V71.0868C73.9521 71.4165 73.6642 71.6864 73.274 71.8974C72.8838 72.1013 72.4477 72.2052 72.0058 72.1998ZM72.6192 70.4548C73.1299 70.4548 73.5248 70.2901 73.8036 69.9604C74.0824 69.6306 74.2218 69.2137 74.2218 68.7102C74.2218 68.2157 74.0824 67.8034 73.8036 67.4737C73.5248 67.1439 73.1299 66.9792 72.6192 66.9792C72.1355 66.9792 71.7459 67.1392 71.4486 67.46C71.1606 67.7808 71.0165 68.1971 71.0165 68.7102C71.0165 69.2233 71.1606 69.6442 71.4486 69.974C71.7459 70.2948 72.1361 70.4548 72.6192 70.4548ZM77.7474 65.3993H79.8797V66.3609C80.0289 66.0215 80.2699 65.7467 80.604 65.5367C80.9483 65.3267 81.3477 65.2206 81.8027 65.2206C82.8619 65.2206 83.5636 65.6279 83.9069 66.4435C84.0959 66.0738 84.3916 65.768 84.7572 65.5643C85.148 65.3324 85.597 65.2136 86.053 65.2206C87.6418 65.2206 88.436 66.1177 88.436 67.9132V72.0211H86.29V68.2979C86.29 67.8497 86.2062 67.5199 86.0392 67.309C85.8717 67.0987 85.6209 66.9928 85.2864 66.9928C84.9243 66.9928 84.6454 67.1166 84.4503 67.3639C84.2552 67.6021 84.1577 68.0184 84.1577 68.614V72.0211H82.0116V68.2843C82.0116 67.8357 81.9282 67.5103 81.7608 67.309C81.6035 67.0987 81.3568 66.9928 81.0229 66.9928C80.651 66.9928 80.3674 67.1166 80.1723 67.3639C79.9772 67.6021 79.8797 68.0184 79.8797 68.614V72.0211H77.7481V65.3993H77.7474ZM96.4459 68.3668C96.4459 68.6503 96.427 68.9574 96.3892 69.2872H91.429C91.4479 69.7178 91.5961 70.0469 91.8749 70.2765C92.1537 70.5051 92.5308 70.6199 93.0037 70.6199C93.6636 70.6199 94.0818 70.4226 94.258 70.0289H96.3484C96.2458 70.6795 95.8836 71.2055 95.2612 71.6088C94.6482 72.0025 93.8955 72.1998 93.0037 72.1998C91.852 72.1998 90.946 71.8927 90.2861 71.2791C89.636 70.6651 89.3106 69.8093 89.3106 68.7102C89.3106 67.9958 89.4591 67.3775 89.7565 66.8554C90.0438 66.334 90.4866 65.912 91.0247 65.6465C91.5732 65.363 92.2094 65.2206 92.9348 65.2206C93.6217 65.2206 94.23 65.3533 94.7596 65.6192C95.2983 65.8851 95.7121 66.2558 95.9997 66.732C96.2974 67.2088 96.4459 67.7535 96.4459 68.3668ZM94.3407 67.9821C94.3316 67.5426 94.2063 67.2078 93.9643 66.9792C93.7233 66.7506 93.3743 66.6358 92.9193 66.6358C92.4643 66.6358 92.1021 66.7592 91.8324 67.0068C91.5725 67.2451 91.4378 67.5698 91.428 67.9821H94.3407ZM97.386 65.3993H99.5182V66.7869C99.6296 66.31 99.8575 65.944 100.201 65.6878C100.535 65.4289 100.947 65.2885 101.372 65.2894C101.594 65.2894 101.781 65.3081 101.929 65.3444V67.2953C101.716 67.27 101.502 67.2564 101.288 67.254C100.703 67.254 100.262 67.4414 99.9641 67.8171C99.6664 68.1834 99.5182 68.7328 99.5182 69.4659V72.0211H97.386V65.3993Z" fill="#070707"/>
</g>
<defs>
<clipPath id="clip0_716_39031">
<rect width="68.3523" height="23.9585" fill="white" transform="translate(33.8254 55.6684)"/>
</clipPath>
</defs>
</svg>
