<svg width="136" height="136" viewBox="0 0 136 136" fill="none" xmlns="http://www.w3.org/2000/svg">
<rect width="136" height="136" rx="68" fill="#ECECEC"/>
<g clip-path="url(#clip0_716_39048)">
<path d="M92.3633 67.1792V72.4871H94.0843V68.9485H100.378V72.4871H102.099V67.1792H92.3633ZM93.8876 65.4584H100.526C101.46 65.2887 102.124 64.4647 102.32 63.6891H92.0928C92.2895 64.4647 92.9779 65.2645 93.8876 65.4584ZM87.1266 72.4871C87.9871 72.1235 88.4542 71.4934 88.6509 70.7663H80.9065V63.7133H79.1609V72.4871H87.1266ZM66.2536 65.4341H72.3999C73.3342 65.1675 74.0963 64.4647 74.293 63.7133H64.5572V68.9H72.5229V70.7178H66.2782C65.2948 70.9844 64.4588 71.6388 64.0409 72.4871H74.2438V67.1792H66.2782L66.2536 65.4341ZM51.109 65.4584H57.747C58.6813 65.2887 59.3697 64.4647 59.5418 63.6891H49.2897C49.4863 64.4647 50.1747 65.2645 51.109 65.4584ZM51.109 68.9243H57.747C58.6813 68.7546 59.3697 67.9305 59.5418 67.155H49.2897C49.4863 67.9305 50.1747 68.7304 51.109 68.9243ZM51.109 72.4871H57.747C58.6813 72.3174 59.3697 71.4934 59.5418 70.7178H49.2897C49.4863 71.4934 50.1747 72.3174 51.109 72.4871Z" fill="#070707"/>
<path d="M33.8254 63.7133C34.0221 64.4889 34.7105 65.2645 35.6202 65.4584H38.4229L38.5704 65.5069V72.4628H40.316V65.5069L40.4635 65.4584H43.2662C44.2005 65.216 44.8643 64.4889 45.061 63.7133V63.6891L33.8254 63.7133Z" fill="#070707"/>
</g>
<defs>
<clipPath id="clip0_716_39048">
<rect width="68.3523" height="21.1399" fill="white" transform="translate(33.8254 57.0777)"/>
</clipPath>
</defs>
</svg>
