<svg width="96" height="96" viewBox="0 0 96 96" fill="none" xmlns="http://www.w3.org/2000/svg">
<rect width="96" height="96" rx="48" fill="#ECECEC"/>
<g clip-path="url(#clip0_716_39081)">
<path d="M27.4797 44.0176C29.4658 44.0176 31.0836 45.6298 31.0836 47.6251C31.0836 49.6205 29.4658 51.2327 27.4797 51.2327C25.4935 51.2327 23.8757 49.6364 23.8757 47.6251C23.8757 45.6139 25.4935 44.0176 27.4797 44.0176ZM55.7345 43.9378V50.259C55.7345 50.7378 55.9267 50.8655 56.2951 50.9613L56.3112 51.0411H54.2769V50.259C54.0367 50.8336 53.5401 51.1848 52.8994 51.1848C51.8102 51.1848 51.0895 50.1951 51.0895 48.7266C51.0895 47.8965 51.3297 47.1942 51.7782 46.6674C52.2107 46.1566 52.8033 45.8852 53.46 45.8852C53.7804 45.8852 54.0527 45.9491 54.2769 46.0928V45.2308C54.2769 45.0392 54.2289 44.9115 54.1328 44.8158C54.0046 44.704 53.7964 44.6561 53.4761 44.6881H53.46V44.6082L55.7345 43.9378ZM63.455 45.9012V50.259C63.455 50.7378 63.6472 50.8655 64.0156 50.9613V51.0411H61.9813V50.243C61.7411 50.8176 61.2125 51.1848 60.6199 51.1848C59.9151 51.1848 59.4666 50.8655 59.2904 50.243L59.2584 50.0834C59.2263 49.9237 59.2103 49.7641 59.2103 49.6045V47.274C59.2103 46.7632 59.0982 46.6036 58.6497 46.5716H58.6337V46.4918L60.6679 45.9012V49.5726C60.6679 50.1153 60.9082 50.4186 61.3567 50.4186C61.629 50.4186 61.8532 50.2749 61.9813 50.0355V47.274C61.9813 46.7472 61.8852 46.5876 61.5168 46.5557H61.5008V46.4759L63.455 45.9012ZM48.7669 45.8852C49.3115 45.8852 49.8401 46.0768 50.1925 46.412C50.5929 46.7951 50.8011 47.3538 50.8172 48.0881V48.104H47.7578C47.6937 49.1575 48.3505 50.0195 49.2154 50.0514C49.8401 50.0993 50.3847 49.7162 50.689 49.0937L50.7691 49.1256C50.5929 50.2909 49.9042 51.1688 48.7028 51.1688C47.3414 51.1688 46.5725 50.0355 46.5405 48.6148V48.2477C46.6046 47.6251 46.7968 47.0665 47.1331 46.6514C47.3414 46.396 47.5816 46.2045 47.8699 46.0768C48.1102 45.9491 48.4626 45.8852 48.7509 45.8852H48.7669ZM69.9581 45.9012C70.823 45.9012 71.3516 46.4439 71.3516 47.3698V50.3388C71.3516 50.6899 71.5118 50.8655 71.9122 50.9613H71.9282V51.0411H69.878V47.4176C69.878 46.843 69.6697 46.5557 69.2373 46.5557C68.8849 46.5557 68.7087 46.8111 68.6126 47.0345C68.6286 47.1463 68.6446 47.258 68.6446 47.3698V50.3867C68.6446 50.7538 68.7567 50.8815 69.0771 50.9613H69.0931V51.0411H67.187V47.4176C67.187 46.843 66.9628 46.5557 66.5463 46.5557C66.21 46.5557 66.0338 46.7951 65.9537 46.9867V50.4026C65.9537 50.7698 66.0658 50.8975 66.3862 50.9773H66.4022V51.0571H64.4961V47.258C64.4961 46.7472 64.368 46.5876 63.9355 46.5557H63.9195V46.4759L65.9537 45.9172V46.7632C66.1619 46.2205 66.6424 45.9012 67.2511 45.9012C67.9399 45.9012 68.4204 46.2364 68.5806 46.843C68.7888 46.2683 69.3174 45.9012 69.9581 45.9012ZM40.7422 44.2571L42.6482 48.7106L44.5543 44.2571H46.6046L46.5885 44.3369L46.5653 44.342C46.212 44.4223 46.0279 44.5539 46.0279 44.9913V50.4186C46.06 50.7698 46.2522 50.8815 46.5885 50.9613H46.6046V51.0411H43.9937V50.9613H44.0097C44.3461 50.8815 44.5383 50.7698 44.5703 50.4186V45.135L42.0556 51.0252H41.9114L39.4608 45.2946V50.2909C39.4608 50.7378 39.653 50.8655 40.0214 50.9453H40.0374V51.0252H38.5317V50.9453H38.5478C38.9162 50.8655 39.1084 50.7378 39.1084 50.2909V44.9913C39.1084 44.5444 38.9162 44.4167 38.5478 44.3369H38.5317V44.2571H40.7422ZM58.2172 45.9012V50.259L58.2175 50.2884C58.2253 50.7431 58.4171 50.8675 58.7778 50.9613L58.7939 51.0411H56.7596V47.274C56.7596 46.7632 56.6475 46.6036 56.199 46.5716H56.183V46.4918L58.2172 45.9012ZM33.246 44.2251C34.223 44.2251 35.0399 45.7575 35.0399 47.6251C35.0399 49.5087 34.239 51.0252 33.246 51.0252C32.2529 51.0252 31.452 49.5087 31.452 47.6251C31.452 45.7416 32.2529 44.2251 33.246 44.2251ZM36.001 44.5763C36.3694 44.5763 36.6417 45.9491 36.6417 47.6251C36.6417 49.3012 36.3534 50.674 36.001 50.674C35.6521 50.674 35.366 49.3285 35.3604 47.6753L35.3603 47.6251C35.3603 45.9491 35.6486 44.5763 36.001 44.5763ZM53.7003 46.1726C53.0596 46.1726 52.6592 47.0186 52.6592 48.3275C52.6592 48.95 52.7713 49.4928 52.9635 49.8599C53.1397 50.2111 53.396 50.4026 53.6843 50.4026C53.9726 50.4026 54.1808 50.2749 54.2769 50.0355V46.5237C54.1648 46.3003 53.9566 46.1726 53.7003 46.1726ZM48.7509 46.1885C48.1743 46.1885 47.8379 46.8749 47.7898 47.8327V47.8486H49.5358C49.5678 47.0984 49.4396 46.6036 49.1994 46.3641C49.0712 46.2524 48.9271 46.1885 48.7509 46.1885ZM57.4324 43.9857C57.8969 43.9857 58.2493 44.3369 58.2493 44.7998C58.2493 45.2627 57.8969 45.6139 57.4324 45.6139C56.9679 45.6139 56.6155 45.2627 56.6155 44.7998C56.6155 44.3369 56.9679 43.9857 57.4324 43.9857Z" fill="#070707"/>
</g>
<defs>
<clipPath id="clip0_716_39081">
<rect width="48.2487" height="15.9171" fill="white" transform="translate(23.8757 39.7927)"/>
</clipPath>
</defs>
</svg>
