<svg width="96" height="96" viewBox="0 0 96 96" fill="none" xmlns="http://www.w3.org/2000/svg">
<rect width="96" height="96" rx="48" fill="#ECECEC"/>
<g clip-path="url(#clip0_716_39055)">
<path fill-rule="evenodd" clip-rule="evenodd" d="M32.392 42.5285H25.0243C24.72 42.5285 24.428 42.6516 24.2127 42.8709C23.9973 43.0901 23.8761 43.3875 23.8757 43.6978V51.196C23.875 51.3498 23.904 51.5023 23.9612 51.6447C24.0183 51.7871 24.1024 51.9166 24.2086 52.0259C24.3149 52.1352 24.4412 52.222 24.5804 52.2815C24.7196 52.3409 24.8689 52.3718 25.0199 52.3724H32.3929C32.5438 52.3722 32.6932 52.3418 32.8325 52.2828C32.9718 52.2237 33.0983 52.1373 33.2049 52.0284C33.3114 51.9196 33.3958 51.7904 33.4534 51.6482C33.5109 51.506 33.5404 51.3537 33.5402 51.1999V43.6978C33.5398 43.3876 33.4187 43.0902 33.2034 42.871C32.9881 42.6518 32.6963 42.5286 32.392 42.5285V42.5285ZM28.0439 49.6188C28.0435 49.7226 28.0026 49.822 27.9303 49.8951C27.8581 49.9682 27.7602 50.009 27.6584 50.0086H26.0467C25.9456 50.0081 25.8488 49.9668 25.7775 49.8938C25.7061 49.8208 25.6661 49.7219 25.666 49.6188V44.7347C25.666 44.6316 25.706 44.5327 25.7774 44.4596C25.8487 44.3865 25.9456 44.3453 26.0467 44.3449H27.6569C27.7582 44.3453 27.8553 44.3865 27.9269 44.4595C27.9985 44.5325 28.0389 44.6314 28.0393 44.7347L28.0439 49.6188ZM31.7588 47.3762C31.7588 47.4796 31.7185 47.5788 31.6468 47.6519C31.5751 47.725 31.4779 47.7661 31.3765 47.7662H29.7618C29.6605 47.7658 29.5634 47.7246 29.4918 47.6515C29.4202 47.5785 29.3798 47.4795 29.3794 47.3762V44.7347C29.3798 44.6314 29.4202 44.5325 29.4919 44.4595C29.5635 44.3865 29.6605 44.3453 29.7618 44.3449H31.3718C31.473 44.3452 31.5699 44.3865 31.6413 44.4595C31.7127 44.5326 31.7528 44.6315 31.7527 44.7347L31.7588 47.3762Z" fill="#777777"/>
<path d="M43.8988 43.2498V45.1535H41.6865V52.3726H39.5531V45.1535H37.3408V43.2498H43.8988Z" fill="#070707"/>
<path d="M46.6145 52.3725H44.6423V45.2712H46.6145V46.6308C46.9893 45.6729 47.5884 45.1031 48.6551 45.1726V47.2762C47.2616 47.1658 46.6145 47.5129 46.6145 48.6508V52.3725Z" fill="#070707"/>
<path d="M59.4281 52.4277C58.1354 52.4277 57.3225 51.7965 57.3225 50.3036V42.5285H59.3088V50.0252C59.3088 50.4559 59.5867 50.6091 59.9281 50.6091C60.0264 50.611 60.1246 50.6062 60.2223 50.5947V52.3448C59.9626 52.4096 59.6953 52.4375 59.4281 52.4277Z" fill="#070707"/>
<path d="M63.5722 52.4277C62.2795 52.4277 61.4651 51.7965 61.4651 50.3036V42.5285H63.4514V50.0252C63.4514 50.4559 63.7315 50.6091 64.0783 50.6091C64.176 50.6112 64.2738 50.6064 64.371 50.5947V52.3448C64.1098 52.4102 63.8409 52.4381 63.5722 52.4277Z" fill="#070707"/>
<path d="M65.3237 48.8189C65.3237 46.6254 66.5623 45.1245 68.6953 45.1245C70.8283 45.1245 72.0412 46.6205 72.0412 48.8189C72.0412 51.0173 70.815 52.5389 68.6957 52.5389C66.5764 52.5389 65.3237 50.998 65.3237 48.8189ZM67.2574 48.8189C67.2574 49.8871 67.6972 50.7346 68.6957 50.7346C69.6942 50.7346 70.1092 49.8871 70.1092 48.8189C70.1092 47.7506 69.6831 46.925 68.6957 46.925C67.7083 46.925 67.2574 47.7489 67.2574 48.8189Z" fill="#070707"/>
<path d="M51.3195 49.4609C51.8718 49.5227 52.4267 49.5558 52.9823 49.5602C54.4932 49.5602 55.7689 49.1468 55.7689 47.6556C55.7689 46.2084 54.4577 45.1211 52.8801 45.1211C50.7561 45.1211 49.3953 46.6914 49.3953 48.8849C49.3953 51.1621 50.5687 52.5143 53.2207 52.5143C54.0075 52.5209 54.7885 52.3786 55.5244 52.0947V50.3935C54.8432 50.616 54.0768 50.8369 53.2904 50.8369C52.2345 50.8371 51.4984 50.4834 51.3195 49.4609ZM52.8399 46.6709C53.3988 46.6709 53.8476 47.0574 53.8476 47.5861C53.8476 48.2659 53.1437 48.4793 52.3321 48.4793C51.9868 48.4776 51.6421 48.4497 51.301 48.3957C51.3267 48.0641 51.42 47.7416 51.575 47.4489C51.6993 47.2169 51.8821 47.023 52.1044 46.8869C52.3267 46.7508 52.5806 46.6776 52.8399 46.6746V46.6709Z" fill="#070707"/>
</g>
<defs>
<clipPath id="clip0_716_39055">
<rect width="48.2487" height="20.8912" fill="white" transform="translate(23.8757 37.3057)"/>
</clipPath>
</defs>
</svg>
